<?xml version="1.0" encoding="utf-8"?>
<!-- Generator: Adobe Illustrator 25.0.0, SVG Export Plug-In . SVG Version: 6.00 Build 0)  -->
<svg version="1.1" xmlns="http://www.w3.org/2000/svg" xmlns:xlink="http://www.w3.org/1999/xlink" x="0px" y="0px"
	 viewBox="0 0 500 500" style="enable-background:new 0 0 500 500;" xml:space="preserve">
<style type="text/css">
	.st0{fill:#00CFFF;}
	.st1{fill:#E0FAFF;}
	.st2{fill:#9EF0FF;}
	.st3{fill:#FFFFFF;}
	.st4{fill:#DEDEDE;}
	.st5{fill:#86BFCA;}
	.st6{fill:#659AA4;}
	.st7{fill:#003458;}
	.st8{fill:#005C93;}
	.st9{fill:#003146;}
	.st10{fill:#005272;}
	.st11{fill:#00395F;}
	.st12{fill:#0098C1;}
	.st13{fill:#7CD0DE;}
	.st14{fill:#66C9DA;}
	.st15{fill:#FF9CBF;}
	.st16{opacity:0.15;}
	.st17{fill:#002030;}
	.st18{fill:#FFBE8D;}
	.st19{font-family:'Comfortaa-Thin';}
	.st20{font-size:10.7099px;}
	.st21{fill:#004775;}
	.st22{fill:#FF595F;}
	.st23{fill:#EB3D42;}
	.st24{fill:#02C6DC;}
	.st25{display:none;}
	.st26{display:inline;}
	.st27{fill:#B8B8B8;}
</style>
<g id="BACKGROUND">
	<rect class="st0" width="500" height="500"/>
	<path class="st1" d="M168.49,187.09H11.81c0,0,16.64,0.92,18.95-16.64c2.31-17.56,22.65-24.8,37.44-14.48
		c14.79,10.32,23.57,4.93,32.35,0c8.78-4.93,19.41-1.69,26.81,9.4c7.39,11.09,13.22,11.87,21.26,10.17
		C158.78,173.38,161.56,186.63,168.49,187.09z"/>
	<path class="st1" d="M297.96,59.99h156.68c0,0-16.64,0.92-18.95-16.64c-2.31-17.56-22.65-24.8-37.44-14.48
		c-14.79,10.32-23.57,4.93-32.35,0c-8.78-4.93-19.41-1.69-26.81,9.4c-7.39,11.09-13.22,11.87-21.26,10.17
		C307.67,46.28,304.9,59.53,297.96,59.99z"/>
	<path class="st2" d="M279.5,90.08H57.48c0,0,23.58,1.31,26.85-23.58c3.27-24.89,32.09-35.15,53.05-20.52
		c20.96,14.63,33.4,6.99,45.85,0c12.44-6.99,27.51-2.4,37.99,13.32c10.48,15.72,18.74,16.82,30.13,14.41
		C265.75,70.65,269.68,89.42,279.5,90.08z"/>
	<rect y="297.3" class="st3" width="500" height="202.7"/>
	<path class="st4" d="M248.07,452.98c-0.19,3.51-40.68,4.2-90.45,1.55c-49.77-2.65-89.96-7.65-89.77-11.16
		c0.19-3.51,40.68-4.2,90.45-1.55C208.06,444.47,248.26,449.47,248.07,452.98z"/>
	<g>
		<path class="st5" d="M235.62,453.95L89.07,440.11l-30.98-10.05l0,0l32.32-4.07l146.55,13.85c5.31,0.5,8.5,4.01,8.14,7.89l0,0
			C244.73,451.61,240.93,454.45,235.62,453.95z"/>
		<path class="st6" d="M236,449.97L89.45,436.13l-31.36-6.07l0,0l31.94-0.09l146.55,13.85c5.31,0.5,8.67,2.22,8.51,3.92l0,0
			C244.93,449.42,241.31,450.48,236,449.97z"/>
		<polygon class="st4" points="89.07,440.11 58.09,430.05 58.09,430.05 90.41,425.98 		"/>
		<polygon class="st7" points="72.97,428.18 58.09,430.05 72.36,434.68 		"/>
		
			<rect x="217.05" y="438.89" transform="matrix(0.9956 0.0941 -0.0941 0.9956 42.9555 -19.3458)" class="st8" width="19.28" height="14.19"/>
		
			<rect x="223.66" y="438.89" transform="matrix(0.9956 0.0941 -0.0941 0.9956 42.9555 -19.3458)" class="st7" width="6.07" height="14.19"/>
	</g>
</g>
<g id="OBJECTS">
	<ellipse class="st4" cx="73.51" cy="331.18" rx="55.76" ry="9.17"/>
	<ellipse class="st4" cx="432.98" cy="327.22" rx="55.76" ry="9.17"/>
	<ellipse class="st4" cx="408.02" cy="448.45" rx="46.62" ry="9.17"/>
	<path class="st4" d="M397.37,425.98c0,4-16.47,7.24-36.78,7.24c-20.31,0-36.78-3.24-36.78-7.24c0-4,16.47-7.24,36.78-7.24
		C380.9,418.74,397.37,421.99,397.37,425.98z"/>
	<ellipse class="st4" cx="93.01" cy="409.78" rx="46.62" ry="9.17"/>
	<ellipse class="st4" cx="289.1" cy="440" rx="46.62" ry="9.17"/>
	<ellipse class="st4" cx="262.03" cy="405.16" rx="138.9" ry="17.18"/>
	<g>
		<path class="st9" d="M110.89,279.74c-0.02-5.74-1.18-11.22-3.27-16.21l10.07-4.22c-2.71-6.47-6.62-12.26-11.61-17.22l-7.7,7.75
			c-3.91-3.88-8.58-7-13.76-9.13l4.15-10.11c-6.42-2.64-13.23-3.98-20.23-3.98h-0.13l0.07,10.92c-5.76,0.01-11.25,1.17-16.25,3.26
			l-4.21-10.08c-6.47,2.7-12.26,6.61-17.23,11.59l7.74,7.7c-3.89,3.91-7.01,8.57-9.14,13.75l-10.1-4.16c-2.65,6.44-4,13.26-4,20.28
			l0,0.26l10.02-0.17h0.9c0.01,5.74,1.17,11.2,3.24,16.19l-10.08,4.2c2.7,6.47,6.59,12.27,11.58,17.24l7.71-7.74
			c3.9,3.89,8.56,7.02,13.74,9.16l-4.17,10.1c6.45,2.67,13.29,4.02,20.33,4.02h0.52l0.52-0.05l-0.99-10.86v-0.01
			c5.74-0.01,11.2-1.16,16.19-3.23l4.19,10.09c6.47-2.69,12.28-6.58,17.25-11.56l-7.73-7.72c3.9-3.9,7.03-8.56,9.17-13.73
			l10.09,4.18c2.68-6.47,4.04-13.33,4.04-20.49L110.89,279.74z M68.56,300.13c-11.18,0-20.25-9.07-20.25-20.25
			c0-11.18,9.07-20.25,20.25-20.25s20.25,9.07,20.25,20.25C88.81,291.07,79.74,300.13,68.56,300.13z"/>
		<path class="st10" d="M68.56,237.54c-23.38,0-42.34,18.96-42.34,42.34c0,23.38,18.96,42.34,42.34,42.34
			c23.38,0,42.34-18.96,42.34-42.34C110.9,256.5,91.94,237.54,68.56,237.54z M68.56,300.13c-11.18,0-20.25-9.07-20.25-20.25
			c0-11.18,9.07-20.25,20.25-20.25s20.25,9.07,20.25,20.25C88.81,291.07,79.74,300.13,68.56,300.13z"/>
		
			<ellipse transform="matrix(0.7071 -0.7071 0.7071 0.7071 -177.826 130.454)" class="st9" cx="68.56" cy="279.88" rx="12.42" ry="12.42"/>
	</g>
	<g>
		<path class="st11" d="M474.84,282.84c0.85-5.68,0.54-11.27-0.77-16.52l10.6-2.64c-1.7-6.8-4.68-13.12-8.86-18.78l-8.79,6.49
			c-3.27-4.43-7.41-8.22-12.21-11.11l5.64-9.36c-5.95-3.59-12.47-5.94-19.39-7.01l-0.13-0.02l-1.6,10.8
			c-5.69-0.87-11.29-0.55-16.55,0.75l-2.63-10.6c-6.8,1.69-13.13,4.66-18.79,8.84l6.48,8.79c-4.44,3.27-8.23,7.4-11.13,12.2
			l-9.35-5.65c-3.6,5.96-5.97,12.5-7.03,19.43l-0.04,0.26l9.93,1.35l0.89,0.14c-0.86,5.67-0.55,11.25,0.75,16.49l-10.61,2.62
			c1.68,6.81,4.65,13.13,8.82,18.8l8.8-6.47c3.27,4.44,7.4,8.24,12.19,11.14l-5.66,9.35c5.97,3.62,12.53,5.99,19.48,7.06l0.51,0.08
			l0.52,0.03l0.67-10.89l0-0.01c5.67,0.87,11.25,0.56,16.49-0.73l2.61,10.61c6.81-1.68,13.14-4.64,18.81-8.8l-6.46-8.8
			c4.44-3.26,8.25-7.39,11.15-12.18l9.34,5.67c3.63-5.99,6.02-12.56,7.11-19.64L474.84,282.84z M428.51,305.58
			c-16.03-2.47-27.03-17.46-24.56-33.49c2.47-16.03,17.46-27.03,33.49-24.56s27.03,17.46,24.56,33.49S444.55,308.04,428.51,305.58z"
			/>
		<path class="st9" d="M439.41,234.7c-23.11-3.55-44.73,12.3-48.28,35.41c-3.55,23.11,12.3,44.73,35.41,48.28
			c23.11,3.55,44.73-12.3,48.28-35.41C478.38,259.87,462.52,238.26,439.41,234.7z M428.51,305.58
			c-16.03-2.47-27.03-17.46-24.56-33.49c2.47-16.03,17.46-27.03,33.49-24.56c16.03,2.47,27.03,17.46,24.56,33.49
			S444.55,308.04,428.51,305.58z"/>
	</g>
	<g>
		<polygon class="st7" points="335.88,379.01 164.12,379.01 174.79,333.74 325.21,333.74 		"/>
		<path class="st8" d="M344.33,405.86H155.67c-8.82,0-16.04-7.22-16.04-16.04l0,0c0-8.82,7.22-16.04,16.04-16.04h188.67
			c8.82,0,16.04,7.22,16.04,16.04l0,0C360.37,398.64,353.15,405.86,344.33,405.86z"/>
		<path class="st7" d="M344.33,392.51H155.67c-6.44,0-12.01-3.85-14.55-9.36c-0.94,2.04-1.48,4.29-1.48,6.68l0,0
			c0,8.82,7.22,16.04,16.04,16.04h188.67c8.82,0,16.04-7.22,16.04-16.04l0,0c0-2.38-0.54-4.64-1.48-6.68
			C356.34,388.65,350.77,392.51,344.33,392.51z"/>
		<path class="st12" d="M274.82,382.02h-97.79c-1.14,0-2.07-0.93-2.07-2.07l0,0c0-1.14,0.93-2.07,2.07-2.07h97.79
			c1.14,0,2.07,0.93,2.07,2.07l0,0C276.89,381.09,275.95,382.02,274.82,382.02z"/>
		<path class="st12" d="M322.97,382.02h-35.28c-1.14,0-2.07-0.93-2.07-2.07l0,0c0-1.14,0.93-2.07,2.07-2.07h35.28
			c1.14,0,2.07,0.93,2.07,2.07l0,0C325.04,381.09,324.11,382.02,322.97,382.02z"/>
		<path class="st8" d="M424.74,336.19H75.26c-4.53,0-8.23-3.7-8.23-8.23V119.82c0-4.53,3.7-8.23,8.23-8.23h349.48
			c4.53,0,8.23,3.7,8.23,8.23v208.14C432.97,332.48,429.26,336.19,424.74,336.19z"/>
		<path class="st11" d="M419.22,306.17H80.78c-3.83,0-6.97-3.14-6.97-6.97V133.08c0-3.83,3.14-6.97,6.97-6.97h338.45
			c3.83,0,6.97,3.14,6.97,6.97v166.13C426.19,303.04,423.06,306.17,419.22,306.17z"/>
		<path class="st2" d="M416.27,303.12H83.73c-3.73,0-6.79-3.05-6.79-6.79V135.95c0-3.73,3.05-6.79,6.79-6.79h332.54
			c3.73,0,6.79,3.05,6.79,6.79v160.38C423.06,300.07,420,303.12,416.27,303.12z"/>
		<path class="st13" d="M99.04,303.09h301.92l8.89-173.83c-0.41-0.08-0.82-0.12-1.24-0.12H91.39c-0.42,0-0.84,0.04-1.24,0.12
			L99.04,303.09z"/>
		
			<ellipse transform="matrix(0.9021 -0.4314 0.4314 0.9021 -114.0744 139.2822)" class="st1" cx="250" cy="321.11" rx="8.4" ry="8.4"/>
		<path class="st7" d="M255.72,321.11c0,3.16-2.56,5.72-5.72,5.72c-3.16,0-5.72-2.56-5.72-5.72c0-3.16,2.56-5.72,5.72-5.72
			C253.16,315.39,255.72,317.95,255.72,321.11z"/>
		<rect x="99.07" y="78.61" class="st3" width="301.87" height="224.51"/>
		<path class="st8" d="M271.63,235.99h-12.05c-2.86,0-5.2-2.34-5.2-5.2v-12.05c0-2.86,2.34-5.2,5.2-5.2h12.05
			c2.86,0,5.2,2.34,5.2,5.2v12.05C276.84,233.65,274.49,235.99,271.63,235.99z"/>
		<path class="st2" d="M308.68,235.99h-12.05c-2.86,0-5.2-2.34-5.2-5.2v-12.05c0-2.86,2.34-5.2,5.2-5.2h12.05
			c2.86,0,5.2,2.34,5.2,5.2v12.05C313.89,233.65,311.54,235.99,308.68,235.99z"/>
		<path class="st14" d="M382.78,235.99h-12.05c-2.86,0-5.2-2.34-5.2-5.2v-12.05c0-2.86,2.34-5.2,5.2-5.2h12.05
			c2.86,0,5.2,2.34,5.2,5.2v12.05C387.98,233.65,385.64,235.99,382.78,235.99z"/>
		<path class="st15" d="M345.73,235.99h-12.05c-2.86,0-5.2-2.34-5.2-5.2v-12.05c0-2.86,2.34-5.2,5.2-5.2h12.05
			c2.86,0,5.2,2.34,5.2,5.2v12.05C350.93,233.65,348.59,235.99,345.73,235.99z"/>
		<polygon class="st2" points="194.62,274.45 178.89,274.45 172.86,303.09 201.5,303.09 		"/>
		<rect x="112.34" y="216.14" class="st2" width="33.63" height="86.95"/>
		<polygon class="st2" points="175.62,303.09 141.99,303.09 153.48,256.32 169.04,256.32 		"/>
		<rect x="111.99" y="140.7" class="st15" width="133.8" height="61.98"/>
		<circle class="st3" cx="143" cy="171.69" r="19.17"/>
		<path class="st8" d="M141.57,180.65L141.57,180.65c-0.95,0.95-2.5,0.95-3.44,0l-6.94-6.94c-0.95-0.95-0.95-2.5,0-3.44l0,0
			c0.95-0.95,2.5-0.95,3.44,0l6.94,6.94C142.52,178.15,142.52,179.7,141.57,180.65z"/>
		<path class="st8" d="M138.23,180.52L138.23,180.52c-0.95-0.95-0.95-2.5,0-3.44l12.04-12.04c0.95-0.95,2.5-0.95,3.44,0l0,0
			c0.95,0.95,0.95,2.5,0,3.44l-12.04,12.04C140.73,181.47,139.18,181.47,138.23,180.52z"/>
		<rect x="254.38" y="140.7" class="st2" width="133.8" height="61.98"/>
		<rect x="103.14" y="83.01" class="st2" width="293.72" height="14.17"/>
		<rect x="167.12" y="87.13" class="st14" width="165.76" height="5.93"/>
		<g>
			<g>
				<path class="st3" d="M384.63,93.83L384.63,93.83c-0.25-0.25-0.25-0.67,0-0.93l6.56-6.56c0.25-0.25,0.67-0.25,0.93,0l0,0
					c0.25,0.25,0.25,0.67,0,0.93l-6.56,6.56C385.3,94.09,384.88,94.09,384.63,93.83z"/>
				<path class="st3" d="M392.11,93.83L392.11,93.83c0.25-0.25,0.25-0.67,0-0.93l-6.56-6.56c-0.25-0.25-0.67-0.25-0.93,0l0,0
					c-0.25,0.25-0.25,0.67,0,0.93l6.56,6.56C391.44,94.09,391.85,94.09,392.11,93.83z"/>
			</g>
			<g>
				<path class="st3" d="M375.35,86.67c1.88,0,3.42,1.53,3.42,3.42c0,1.88-1.53,3.42-3.42,3.42c-1.88,0-3.42-1.53-3.42-3.42
					C371.93,88.21,373.46,86.67,375.35,86.67 M375.35,85.67c-2.44,0-4.42,1.98-4.42,4.42s1.98,4.42,4.42,4.42
					c2.44,0,4.42-1.98,4.42-4.42S377.79,85.67,375.35,85.67L375.35,85.67z"/>
			</g>
			<g>
				<path class="st3" d="M366.31,93.81h-7.97c-0.28,0-0.5-0.22-0.5-0.5c0-0.28,0.22-0.5,0.5-0.5h7.97c0.28,0,0.5,0.22,0.5,0.5
					C366.81,93.58,366.58,93.81,366.31,93.81z"/>
			</g>
		</g>
		<g>
			<g>
				<path class="st3" d="M116.33,93.52h-7.97c-0.28,0-0.5-0.22-0.5-0.5c0-0.28,0.22-0.5,0.5-0.5h7.97c0.28,0,0.5,0.22,0.5,0.5
					C116.83,93.3,116.6,93.52,116.33,93.52z"/>
			</g>
		</g>
		<g>
			<g>
				<path class="st3" d="M116.33,90.59h-7.97c-0.28,0-0.5-0.22-0.5-0.5c0-0.28,0.22-0.5,0.5-0.5h7.97c0.28,0,0.5,0.22,0.5,0.5
					C116.83,90.37,116.6,90.59,116.33,90.59z"/>
			</g>
		</g>
		<g>
			<g>
				<path class="st3" d="M116.33,87.66h-7.97c-0.28,0-0.5-0.22-0.5-0.5c0-0.28,0.22-0.5,0.5-0.5h7.97c0.28,0,0.5,0.22,0.5,0.5
					C116.83,87.43,116.6,87.66,116.33,87.66z"/>
			</g>
		</g>
		<path class="st3" d="M229.19,175.44h-56.11c-1.46,0-2.66-1.2-2.66-2.66l0,0c0-1.46,1.2-2.66,2.66-2.66h56.11
			c1.46,0,2.66,1.2,2.66,2.66l0,0C231.86,174.25,230.66,175.44,229.19,175.44z"/>
		<path class="st3" d="M229.19,163.44h-56.11c-1.46,0-2.66-1.2-2.66-2.66l0,0c0-1.46,1.2-2.66,2.66-2.66h56.11
			c1.46,0,2.66,1.2,2.66,2.66l0,0C231.86,162.25,230.66,163.44,229.19,163.44z"/>
		<path class="st3" d="M229.19,187.45h-56.11c-1.46,0-2.66-1.2-2.66-2.66l0,0c0-1.46,1.2-2.66,2.66-2.66h56.11
			c1.46,0,2.66,1.2,2.66,2.66l0,0C231.86,186.25,230.66,187.45,229.19,187.45z"/>
		<path class="st16" d="M176.73,260.86h-2.88v-0.17c0-0.98-0.8-1.78-1.78-1.78h-13.78c-0.98,0-1.78,0.8-1.78,1.78v2.03
			c0,0.98,0.8,1.78,1.78,1.78h13.78c0.98,0,1.78-0.8,1.78-1.78v-0.17h2.04v5h-10.71c-0.46,0-0.84,0.38-0.84,0.84v6.4
			c-1.04,0.36-1.8,1.33-1.8,2.49v4.05c-0.58,0.4-1.31,0.85-2.24,1.36c-1.61,0.88-2.28,1.86-2.54,2.68
			c-4.89,1.17-11.46,2.78-17.5,3.86c-7.12,1.31-13.44,1.93-15.06,2.11c-0.27,0.03-0.53,0.07-0.78,0.11
			c-0.33-0.37-0.69-0.71-1.12-0.97c0,0-5.44,1.03-9.55,1.68c-0.34,0.05-1.7,0.39-3.66,0.69c-0.08-0.68-0.12-1.25-0.13-1.74
			c1.54-0.51,2.85-1.51,3.73-3.06c3.89-6.92,2.45-13.27,0.18-17.57l0,0c0,0-2.7-11.39-15.68-7.92c-8.71,2.33-10.96,18.17-11.5,28.36
			c-0.29-0.16-0.59-0.33-0.9-0.52c-2.11-1.29-4.63-3.16-6.74-5.69c-2.15-2.49-3.86-5.63-4.97-8.84c-0.81-2.25-1.29-4.51-1.65-6.53
			c0.69-0.57,1.41-1.67,1.37-3.82c-0.08-4.09,0.57-5.19,1.09-5.91c0.53-0.72-1.2-1.8-2.35,0.97c-1.15,2.77-1.15,2.77-1.15,2.77
			s-1.55-6.1-3.61-7.87c-0.29-0.24-0.53-0.32-0.75-0.29v13.49c0.3,0.29,0.62,0.54,0.96,0.74c-0.23,2.29-0.24,4.98,0.23,7.86
			c0.29,2.03,0.88,4.12,1.64,6.17c0.77,2.05,1.83,4.03,3.02,5.84c2.39,3.65,5.49,6.44,8.11,8.32c2.65,1.87,4.81,2.91,5.71,3.31
			c0.38,0.17,0.75,0.31,1.11,0.44c-0.13,0.62-0.25,1.26-0.32,1.93c0,0,2.22,0.92,6.58,1.38c0,0,9.48,6.61,3.22,21
			c-1.56,3.58-2.87,7.13-4.01,10.54h29.75c-0.96-3.67-2.15-7.28-3.64-10.54c-5.16-11.28,1.64-13.5,1.8-21.27
			c0,0,3.08-0.18,4.98-1.87c0,0,0.15-0.93,0.22-2.29c1.93-0.23,8.53-1.33,15.68-3.54c6.15-1.87,12.65-4.57,17.18-7.1
			c0.74,0.45,1.8,0.68,3.28,0.62v2.68c0,1.45,1.19,2.64,2.64,2.64c1.45,0,2.64-1.19,2.64-2.64V289c3.61-1.73,6.31-5.29,4.18-6.06
			c-1.03-0.37-2.63-0.31-4.18-0.12v-5.54c0-1.15-0.76-2.13-1.8-2.49v-5.55h10.71c0.46,0,0.84-0.38,0.84-0.84v-6.69
			C177.57,261.24,177.19,260.86,176.73,260.86z"/>
		<path class="st16" d="M397.47,138.51c-2.44,1.17-5.38,6.69-5.38,6.69s0,0-0.49-2.99c-0.49-2.99-2.44-2.4-2.09-1.56
			c0.35,0.84,0.74,2.07-0.3,6.03c-0.54,2.07-0.09,3.33,0.46,4.06c-0.82,1.87-1.82,3.93-3.14,5.9c-1.83,2.82-4.24,5.43-6.94,7.28
			c-2.47,1.77-5.15,2.89-7.43,3.6c-0.58-1.6-1.01-2.58-1.01-2.58c-5.74,4.91-12.2,5.83-17.22,5.56c0.39-2.56,0.44-4.54,0.34-6.02
			c0.56-0.23,1.12-0.48,1.67-0.78c0.61-0.32,1.16-0.68,1.7-1.05c3.23-0.92,5.72-3.97,7.4-7.23c2.7-5.25,2.58-12.77-3.16-16.99
			c-5.63-4.14-10.4-3.91-17.5-3.56c0,0-1.75,3.27,0.46,7.39c-3.8,3.23-7.8,9.03-5.98,17.52c0.74,3.44,3.65,5.45,7.33,5.91
			c0,0.82-0.08,1.92-0.3,3.34c-0.22-0.06-0.38-0.11-0.46-0.12c-4.21-0.73-13.37-6.05-13.37-6.05c-1.11,0.63-2.16,1.7-3.11,2.94
			c-0.21-0.2-0.43-0.4-0.66-0.61c-1.56-1.63-3.24-3.98-4.47-6.88c-0.27-0.74-0.63-1.47-0.86-2.25c-0.22-0.8-0.43-1.6-0.65-2.4
			c-0.13-0.4-0.21-0.81-0.26-1.23l-0.19-1.25c-0.07-0.42-0.14-0.83-0.2-1.24c-0.08-0.41-0.14-0.83-0.14-1.24
			c-0.05-0.83-0.1-1.65-0.16-2.45c-0.06-0.8-0.14-1.58-0.09-2.34c0.01-0.58,0.01-1.14,0.01-1.69c0.79-0.44,1.68-1.4,1.97-3.55
			c0.54-4.1,1.37-5.06,2.02-5.68c0.65-0.62-0.95-2.02-2.54,0.52c-0.54,0.85-0.89,1.42-1.13,1.8c-0.47,0.74-0.47,0.74-0.47,0.74
			s-0.65-6.39-2.48-8.55c-1.83-2.16-4.95,3.68-4.2,8.4c0.47,2.96,1.24,4.74,2.2,5.72c-0.15,0.49-0.29,1-0.44,1.53
			c-0.25,0.79-0.38,1.64-0.51,2.53c-0.13,0.89-0.26,1.81-0.39,2.75c-0.08,0.47-0.11,0.95-0.1,1.44c-0.01,0.49-0.02,0.99-0.02,1.49
			c0,0.5-0.01,1.01-0.01,1.51c-0.01,0.51,0,1.02,0.08,1.53c0.13,1.04,0.26,2.07,0.38,3.1c0.16,1.03,0.49,2.05,0.73,3.07
			c1.14,4.04,3.23,7.68,5.33,10.23c1.08,1.19,2.03,2.24,2.91,2.97c-0.28,0.69-0.44,1.12-0.44,1.12v0c1.63,1.58,3.59,2.77,5.52,3.67
			c0.77,0.36,1.54,0.67,2.27,0.94c0.74,0.27,1.44,0.5,2.1,0.69c0.98,0.29,1.85,0.49,2.51,0.63c0.44,0.09,0.8,0.16,1.05,0.2
			c0.25,0.04,0.38,0.06,0.38,0.06c0.16,4.29,0,8.46-0.35,12.35c-0.1,1.11-0.21,2.2-0.34,3.27c-0.06,0.53-0.13,1.06-0.2,1.58
			c-0.41,3.11-0.92,5.97-1.44,8.49c-0.09,0.42-0.17,0.83-0.26,1.23c-0.17,0.8-0.35,1.56-0.52,2.28c-0.05,0.22-0.1,0.42-0.15,0.63
			l-0.98-0.01l-0.13-8.2c-0.01-0.93-0.79-1.69-1.74-1.71c-0.94-0.01-1.7,0.73-1.68,1.65l0.37,22.31l0,0v0l1.42,86.06l0.2,12.16v0
			l0,0l0.21,13.01h49.19l-0.01-0.88v0l0,0l-0.4-36.28v0v0l-0.13-12.16l0,0c0,0,0,0,0,0l-0.13-12.19l0,0v0l-0.13-12.22v0l0,0
			l-0.13-12.26v0l0,0l-0.14-12.29v0l0,0l-0.27-24.68v0v0l-0.11-9.82c-0.01-0.92-0.78-1.68-1.71-1.7c-0.93-0.01-1.68,0.72-1.67,1.64
			l0.09,8.16l-5.32-0.08c-0.25-0.55-0.49-1.1-0.72-1.66c-0.62-1.51-1.16-3.04-1.65-4.57c-0.48-1.53-0.9-3.06-1.26-4.56
			c-2.41-10.02-2.32-18.81-2.32-18.81c0.29,0.01,0.57,0.01,0.86,0c0.86-0.03,1.73-0.15,2.56-0.32c2.49-0.52,4.69-1.52,5.64-1.98
			c0.31-0.16,0.49-0.25,0.49-0.25c-0.14-1.14-0.34-2.26-0.56-3.35c0.05-0.02,0.09-0.03,0.14-0.05c3.02-1.14,6.71-3.04,9.91-5.95
			c1.59-1.44,3.09-3.07,4.33-4.86c1.22-1.79,2.28-3.66,3.04-5.55c1.13-2.66,1.74-5.27,2.05-7.55c1.74-0.49,3.46-1.94,3.92-4.41
			C398.72,143.38,399.91,137.34,397.47,138.51z M361.54,256.54l-12.13,0.03c-0.1-2.93-0.21-6.04-0.32-9.17l11.16-0.03
			C360.69,250.51,361.12,253.62,361.54,256.54z M358.95,238.53c0.28,1.79,0.56,3.62,0.83,5.47l-10.79,0.03
			c-0.06-2.01-0.1-4.01-0.13-5.95c-0.02-1.08-0.03-2.13-0.03-3.17l9.55-0.03C358.57,236.06,358.76,237.28,358.95,238.53z
			 M349.02,224.63c0.04-0.77,0.08-1.47,0.13-2.14l0.75,0c0.69,0.12,1.41,0.2,2.17,0.2c1.08,0,2.11-0.08,3.07-0.22l0.99,0
			c0.19,0.94,0.4,1.98,0.62,3.15c0.33,1.76,0.7,3.76,1.07,5.91l-8.98,0.03C348.86,229,348.92,226.65,349.02,224.63z M332.83,210.41
			l0-0.2l0.06,0C332.86,210.28,332.84,210.34,332.83,210.41z M333.02,219.21l-0.11-5.16c1.55,0.54,3.1,0.99,4.62,1.37
			c-0.01,0.1-0.03,0.2-0.04,0.31c-0.02,0.13-0.03,0.29-0.05,0.46c-0.01,0.09-0.02,0.19-0.03,0.29c-0.01,0.06-0.01,0.12-0.02,0.18
			c-0.05,0.67-0.11,1.52-0.14,2.53L333.02,219.21z M333.29,231.6l-0.2-9.06l4.11-0.01c0,0.55,0.01,1.12,0.02,1.71
			c0.05,2.2,0.19,4.7,0.41,7.35L333.29,231.6z M333.36,234.95l4.59-0.01c0.13,1.21,0.27,2.44,0.43,3.69
			c0.22,1.79,0.49,3.6,0.77,5.42l-5.6,0.01L333.36,234.95z M333.63,247.43l6.08-0.02c0.55,3.15,1.17,6.25,1.83,9.17l-7.71,0.02
			L333.63,247.43z M333.9,259.99l8.44-0.02c0.42,1.71,0.86,3.32,1.29,4.81c-0.54,0.52-1.04,1.25-1.44,2.3
			c-0.3,0.78-0.33,1.49-0.23,2.11l-7.86,0.01L333.9,259.99z M377.72,323.95l0.3,9.53l-42.52,0l-0.21-9.51L377.72,323.95z
			 M377.61,320.45l-42.39,0.02l-0.21-9.46l42.3-0.03L377.61,320.45z M376.9,298.09l0.3,9.41l-42.26,0.03l-0.2-9.4L376.9,298.09z
			 M376.79,294.63l-42.13,0.05l-0.2-9.34l42.04-0.06L376.79,294.63z M375.98,269.14l-4.19,0.01c-0.01-0.09-0.01-0.18-0.03-0.27
			c-0.1-0.44-0.26-0.89-0.5-1.33c-0.71-1.26-1.73-2.17-2.85-2.71c0.2-1.49,0.38-3.15,0.54-4.92l6.74-0.01L375.98,269.14z
			 M375.58,256.51l-6.38,0.01c0.18-2.9,0.3-6.01,0.34-9.18l5.74-0.01L375.58,256.51z M375.18,243.96l-5.62,0.01
			c-0.01-2.08-0.05-4.15-0.14-6.19c-0.03-0.99-0.07-1.97-0.12-2.94l5.59-0.02L375.18,243.96z M374.78,231.48l-5.69,0.02
			c-0.19-2.71-0.44-5.23-0.68-7.42c-0.06-0.57-0.13-1.12-0.2-1.64l6.28-0.02L374.78,231.48z M372.8,213.56
			c-0.81-1.11-1.54-2.28-2.23-3.48l3.52-0.01l0.29,9.02l-6.64,0.02c-0.06-0.38-0.12-0.73-0.17-1.06h0
			c-0.01-0.03-0.01-0.06-0.02-0.09c-0.05-0.29-0.1-0.55-0.14-0.79c-0.02-0.1-0.03-0.19-0.05-0.27c-0.01-0.08-0.03-0.16-0.04-0.23
			c-0.03-0.16-0.06-0.31-0.08-0.43c-0.07-0.32-0.14-0.63-0.21-0.93C370.65,214.42,372.8,213.56,372.8,213.56z M363.68,272.6
			l5.09-0.01c0.08,0,0.16-0.02,0.24-0.03l7.08-0.01l0.3,9.29l-42,0.06l-0.2-9.28l29.18-0.05
			C363.46,272.59,363.57,272.6,363.68,272.6z M362.05,259.93c0.28,1.82,0.56,3.53,0.85,5.06c-0.75,0.47-1.47,1.25-2.06,2.57
			c-0.25,0.57-0.35,1.1-0.36,1.6l-7.28,0.01c0.1-0.47,0.11-0.97-0.03-1.48c-0.12-0.44-0.3-0.88-0.57-1.3
			c-0.78-1.22-1.85-2.06-3-2.53c-0.01-1.23-0.04-2.55-0.08-3.91L362.05,259.93z"/>
		<path class="st16" d="M311.42,254.89l-11.88-4.16c-2.82-0.99-6.14,0.58-7.38,3.49l-5.22,12.24c-1.24,2.91,0.05,6.09,2.87,7.08
			l11.88,4.16c0.06,0.02,0.12,0.03,0.18,0.05c0.2,0.52,0.42,1.1,0.63,1.77c0.53,1.64,1.31,2.52,2.05,2.99
			c-0.49,2.33-0.95,5.03-1.62,7.87c-0.21,0.94-0.38,1.91-0.6,2.87c-0.24,0.96-0.49,1.92-0.73,2.89c-0.43,1.95-1.06,3.83-1.59,5.67
			c-0.95,2.82-1.93,5.45-2.96,7.55c-1.04-1.92-1.88-3.1-1.88-3.1c-6.16,6.22-10.79,9.28-14.19,10.73c0.21-1.35,0.31-2.61,0.36-3.7
			c1.67-0.76,3.37-1.87,5-3.41c2.67-2.51,4.46-5.64,5.52-8.86c0.21,0.11,0.45,0.19,0.74,0.18c2.82-0.05,6.5-7.43,3.47-8.66
			c-0.69-0.28-1.32-0.29-1.89-0.14c0-0.45,0-0.9-0.04-1.35c-0.69-8.72-5.4-12.57-15.33-11.1c-9.93,1.47-12.47,10.41-12.47,10.41
			c-0.05,0.18-0.08,0.35-0.12,0.52c-0.52-0.24-1.15-0.32-1.93-0.14c-3.34,0.79-2.02,8.51,0.72,8.95c0.47,0.07,0.88-0.05,1.23-0.3
			c-0.14,3.06,0.36,6.41,1.91,9.92c0.88,2,2.31,3.45,4.09,4.3c-0.05,1.13-0.17,2.46-0.44,3.76c-4.6-1.7-10.85-7.56-10.85-7.56
			c-0.02,0.01-0.03,0.02-0.05,0.03c-0.14-0.23-0.28-0.48-0.45-0.73c-0.24-0.4-0.53-0.83-0.76-1.34c-1.09-1.93-2.13-4.65-2.9-7.73
			c-0.17-0.78-0.43-1.54-0.54-2.37c-0.14-0.82-0.28-1.64-0.42-2.47c-0.16-0.82-0.18-1.68-0.28-2.51c-0.07-0.84-0.22-1.66-0.23-2.5
			c-0.04-0.83-0.07-1.65-0.11-2.44c-0.04-0.8-0.11-1.57-0.08-2.33c0-0.87-0.01-1.69-0.03-2.47c0.14-0.02,0.28-0.04,0.43-0.09
			c1-0.27,2.33-1.1,3.46-3.36c0.47-0.95,0.9-1.73,1.29-2.37l1.56,0.55c2.82,0.99,6.14-0.58,7.38-3.49l5.22-12.24
			c1.24-2.91-0.05-6.09-2.87-7.08l-11.88-4.16c-2.82-0.99-6.14,0.58-7.38,3.49l-5.22,12.24c-1.24,2.91,0.05,6.09,2.87,7.08
			l0.94,0.33c-0.04,0.18-0.1,0.36-0.13,0.53c-0.63,3.24-0.51,5.32,0.09,6.62c-0.43,1.22-0.88,2.64-1.33,4.21
			c-0.26,0.8-0.41,1.65-0.58,2.53c-0.16,0.89-0.33,1.79-0.5,2.72c-0.19,0.93-0.22,1.89-0.32,2.86c-0.07,0.97-0.21,1.96-0.2,2.95
			c0,1,0.01,1.99,0.01,2.98c-0.02,1,0.14,1.98,0.22,2.95c0.39,3.89,1.32,7.54,2.51,10.29c0.25,0.7,0.58,1.33,0.87,1.91
			c0.3,0.58,0.53,1.12,0.82,1.57c0.56,0.9,0.96,1.59,1.25,1.96c0.01,0.01,0.02,0.03,0.03,0.04c-1.03,1.77-1.61,3.09-1.61,3.09
			c3.66,8.46,9.38,10.55,9.38,10.55c-0.1,1.54-0.21,3.06-0.31,4.55h29.95c0.42-5.33,0.99-8.83,0.99-8.83
			c5.09,0.14,9.08-4.63,9.08-4.63c-0.01-0.5-0.04-0.99-0.09-1.48c0,0,0,0,0,0c0.44-0.46,0.95-1.29,1.71-2.39
			c0.39-0.55,0.69-1.18,1.08-1.87c0.38-0.69,0.8-1.44,1.12-2.25c1.55-3.22,2.68-7.27,3.55-11.5c1.45-7.57,1.52-15.65,0.98-21.21
			c1.36-1.1,2.22-3.35,2.13-7.63c-0.03-1.39-0.37-2.79-0.88-4.05l3.57-8.37C315.53,259.06,314.24,255.87,311.42,254.89z"/>
	</g>
	<g>
		<g>
			<g>
				<path class="st17" d="M337.42,426.57c-0.93,0-1.68-0.75-1.68-1.68V200.52c0-0.93,0.75-1.68,1.68-1.68
					c0.93,0,1.68,0.75,1.68,1.68v224.38C339.1,425.82,338.34,426.57,337.42,426.57z"/>
			</g>
		</g>
		<g>
			<g>
				<path class="st17" d="M383.32,426.57c-0.93,0-1.68-0.75-1.68-1.68V200.52c0-0.93,0.75-1.68,1.68-1.68
					c0.93,0,1.68,0.75,1.68,1.68v224.38C385,425.82,384.25,426.57,383.32,426.57z"/>
			</g>
		</g>
		<g>
			<g>
				<path class="st17" d="M383.32,212.08h-45.9c-0.93,0-1.68-0.75-1.68-1.68c0-0.93,0.75-1.68,1.68-1.68h45.9
					c0.93,0,1.68,0.75,1.68,1.68C385,211.33,384.25,212.08,383.32,212.08z"/>
			</g>
			<g>
				<path class="st17" d="M383.32,224.55h-45.9c-0.93,0-1.68-0.75-1.68-1.68c0-0.93,0.75-1.68,1.68-1.68h45.9
					c0.93,0,1.68,0.75,1.68,1.68C385,223.8,384.25,224.55,383.32,224.55z"/>
			</g>
			<g>
				<path class="st17" d="M383.32,237.02h-45.9c-0.93,0-1.68-0.75-1.68-1.68c0-0.93,0.75-1.68,1.68-1.68h45.9
					c0.93,0,1.68,0.75,1.68,1.68C385,236.27,384.25,237.02,383.32,237.02z"/>
			</g>
			<g>
				<path class="st17" d="M383.32,249.48h-45.9c-0.93,0-1.68-0.75-1.68-1.68c0-0.93,0.75-1.68,1.68-1.68h45.9
					c0.93,0,1.68,0.75,1.68,1.68C385,248.73,384.25,249.48,383.32,249.48z"/>
			</g>
			<g>
				<path class="st17" d="M383.32,261.95h-45.9c-0.93,0-1.68-0.75-1.68-1.68c0-0.93,0.75-1.68,1.68-1.68h45.9
					c0.93,0,1.68,0.75,1.68,1.68C385,261.2,384.25,261.95,383.32,261.95z"/>
			</g>
			<g>
				<path class="st17" d="M383.32,274.42h-45.9c-0.93,0-1.68-0.75-1.68-1.68c0-0.93,0.75-1.68,1.68-1.68h45.9
					c0.93,0,1.68,0.75,1.68,1.68C385,273.67,384.25,274.42,383.32,274.42z"/>
			</g>
			<g>
				<path class="st17" d="M383.32,286.89h-45.9c-0.93,0-1.68-0.75-1.68-1.68c0-0.93,0.75-1.68,1.68-1.68h45.9
					c0.93,0,1.68,0.75,1.68,1.68C385,286.14,384.25,286.89,383.32,286.89z"/>
			</g>
			<g>
				<path class="st17" d="M383.32,299.36h-45.9c-0.93,0-1.68-0.75-1.68-1.68c0-0.93,0.75-1.68,1.68-1.68h45.9
					c0.93,0,1.68,0.75,1.68,1.68C385,298.6,384.25,299.36,383.32,299.36z"/>
			</g>
			<g>
				<path class="st17" d="M383.32,311.82h-45.9c-0.93,0-1.68-0.75-1.68-1.68c0-0.93,0.75-1.68,1.68-1.68h45.9
					c0.93,0,1.68,0.75,1.68,1.68C385,311.07,384.25,311.82,383.32,311.82z"/>
			</g>
			<g>
				<path class="st17" d="M383.32,324.29h-45.9c-0.93,0-1.68-0.75-1.68-1.68c0-0.93,0.75-1.68,1.68-1.68h45.9
					c0.93,0,1.68,0.75,1.68,1.68C385,323.54,384.25,324.29,383.32,324.29z"/>
			</g>
			<g>
				<path class="st17" d="M383.32,336.76h-45.9c-0.93,0-1.68-0.75-1.68-1.68c0-0.93,0.75-1.68,1.68-1.68h45.9
					c0.93,0,1.68,0.75,1.68,1.68C385,336.01,384.25,336.76,383.32,336.76z"/>
			</g>
			<g>
				<path class="st17" d="M383.32,349.23h-45.9c-0.93,0-1.68-0.75-1.68-1.68c0-0.93,0.75-1.68,1.68-1.68h45.9
					c0.93,0,1.68,0.75,1.68,1.68C385,348.48,384.25,349.23,383.32,349.23z"/>
			</g>
			<g>
				<path class="st17" d="M383.32,361.7h-45.9c-0.93,0-1.68-0.75-1.68-1.68c0-0.93,0.75-1.68,1.68-1.68h45.9
					c0.93,0,1.68,0.75,1.68,1.68C385,360.94,384.25,361.7,383.32,361.7z"/>
			</g>
			<g>
				<path class="st17" d="M383.32,374.16h-45.9c-0.93,0-1.68-0.75-1.68-1.68c0-0.93,0.75-1.68,1.68-1.68h45.9
					c0.93,0,1.68,0.75,1.68,1.68C385,373.41,384.25,374.16,383.32,374.16z"/>
			</g>
			<g>
				<path class="st17" d="M383.32,386.63h-45.9c-0.93,0-1.68-0.75-1.68-1.68c0-0.93,0.75-1.68,1.68-1.68h45.9
					c0.93,0,1.68,0.75,1.68,1.68C385,385.88,384.25,386.63,383.32,386.63z"/>
			</g>
			<g>
				<path class="st17" d="M383.32,399.1h-45.9c-0.93,0-1.68-0.75-1.68-1.68c0-0.93,0.75-1.68,1.68-1.68h45.9
					c0.93,0,1.68,0.75,1.68,1.68C385,398.35,384.25,399.1,383.32,399.1z"/>
			</g>
			<g>
				<path class="st17" d="M383.32,411.57h-45.9c-0.93,0-1.68-0.75-1.68-1.68c0-0.93,0.75-1.68,1.68-1.68h45.9
					c0.93,0,1.68,0.75,1.68,1.68C385,410.82,384.25,411.57,383.32,411.57z"/>
			</g>
		</g>
	</g>
	<g>
		<path class="st18" d="M327.96,140.7c0.78-0.44,1.68-1.42,1.99-3.55c0.59-4.05,1.42-5.02,2.05-5.65c0.64-0.62-0.89-1.97-2.48,0.57
			c-0.54,0.85-0.89,1.42-1.13,1.8L327.96,140.7z"/>
		<rect x="111.99" y="107.11" class="st14" width="276.03" height="26.37"/>
		<text transform="matrix(1 0 0 1 343.5296 120.2923)" class="st8 st19 st20">SEARCH</text>
		<rect x="120.41" y="124.49" class="st8" width="259.18" height="1.25"/>
		<path class="st18" d="M328.41,133.87c-0.47,0.74-0.47,0.74-0.47,0.74s-0.52-6.27-2.26-8.35c-1.74-2.08-4.86,3.73-4.22,8.36
			c0.8,5.78,2.85,6.92,5.2,6.46c0,0,0.6,0.03,1.3-0.37L328.41,133.87z"/>
		<g>
			<g>
				<g>
					<path class="st8" d="M341.67,122.43c-0.13,0-0.26-0.05-0.35-0.15l-3.27-3.27c-0.2-0.2-0.2-0.51,0-0.71c0.2-0.2,0.51-0.2,0.71,0
						l3.27,3.27c0.2,0.2,0.2,0.51,0,0.71C341.92,122.38,341.79,122.43,341.67,122.43z"/>
				</g>
				<g>
					<path class="st8" d="M335.28,112.12c0.91,0,1.77,0.36,2.42,1c1.33,1.33,1.33,3.5,0,4.83c-0.65,0.65-1.5,1-2.42,1
						c-0.91,0-1.77-0.36-2.42-1c-1.33-1.33-1.33-3.5,0-4.83C333.5,112.48,334.36,112.12,335.28,112.12 M335.28,111.12
						c-1.13,0-2.26,0.43-3.12,1.29c-1.73,1.72-1.73,4.52,0,6.25c0.86,0.86,1.99,1.29,3.12,1.29c1.13,0,2.26-0.43,3.12-1.29
						c1.73-1.72,1.73-4.52,0-6.25C337.54,111.55,336.41,111.12,335.28,111.12L335.28,111.12z"/>
				</g>
				<g>
					<path class="st8" d="M339.15,120.42c-0.26,0-0.51-0.1-0.71-0.29l-0.76-0.76c-0.39-0.39-0.39-1.02,0-1.41
						c0.39-0.39,1.02-0.39,1.41,0l0.76,0.76c0.39,0.39,0.39,1.02,0,1.41C339.67,120.32,339.41,120.42,339.15,120.42z"/>
				</g>
			</g>
		</g>
		<g>
			<g>
				<path class="st18" d="M352.82,138.78c-4.11,2.83-9.88,9.14-7.95,18.92c1.21,6.16,9.48,7.55,16.72,3.54
					c7.23-4.01,9.35-11.62,8.44-16.85C369.11,139.16,359.4,134.25,352.82,138.78z"/>
				<g>
					<path class="st18" d="M355.16,173.54c-0.29,0-0.58-0.03-0.87-0.1c-2.16-0.48-3.52-2.61-3.04-4.77c1.13-5.1,0.59-7.12,0.58-7.14
						c0.05,0.18,0.1,0.26,0.1,0.26l7.34-3.18c0.37,0.86,1.46,4.25-0.21,11.79C358.65,172.27,357,173.54,355.16,173.54z"/>
				</g>
				<path class="st11" d="M352.72,142.69c0,0-2.89,4.5-3.94,6.11c0,0,1.94,1.47,3.25-0.24c1.32-1.71,2.26-4.92,4.95-4.88
					c1.79,0.03,1.53,1.91,0.75,3.42c-1.19,2.32-3.1,3.5-4.32,3.35c0,0-3.21,5.11,3.27,8.75c6.48,3.64,11.24-1.12,13.97-6.39
					c2.72-5.27,2.69-12.73-2.9-16.78c-5.47-3.97-10.14-3.63-17.1-3.12C350.64,132.93,348.09,137.62,352.72,142.69z"/>
			</g>
			<g>
				<path class="st18" d="M395.97,145.39c-0.99,2.34-2.25,5.36-4.13,8.19c-1.84,2.85-4.25,5.5-6.94,7.4
					c-2.65,1.95-5.54,3.16-7.9,3.91c-2.38,0.73-4.22,1.02-4.97,1.15c-3.89,0.65-5.44,1.82-5.62,4.93c-0.08,1.54,0.43,2.7,1.62,3.4
					c1.19,0.69,3.05,0.94,5.56,0.5c0.97-0.17,3.32-0.66,6.34-1.84c2.99-1.2,6.67-3.17,9.87-6.13c1.59-1.47,3.09-3.13,4.33-4.94
					c1.23-1.81,2.3-3.7,3.07-5.6c1.61-3.78,2.21-7.44,2.37-10.18L395.97,145.39z"/>
			</g>
			<g>
				<path class="st18" d="M324.37,137.51c-0.43,1.21-0.87,2.63-1.33,4.21c-0.26,0.78-0.4,1.63-0.54,2.51
					c-0.14,0.89-0.28,1.79-0.43,2.72c-0.09,0.46-0.12,0.94-0.13,1.43c-0.02,0.49-0.03,0.98-0.05,1.47c-0.01,0.5-0.02,0.99-0.04,1.49
					c-0.02,0.5-0.02,1,0.05,1.51c0.11,1.02,0.21,2.04,0.32,3.06c0.13,1.02,0.44,2.02,0.66,3.02c1.04,3.97,3.01,7.55,5.02,10.03
					c1.06,1.19,1.99,2.25,2.86,2.96c0.42,0.37,0.78,0.7,1.11,0.96c0.33,0.24,0.6,0.44,0.8,0.58c2.07,1.48,3.91,1.96,5.27,1.74
					c1.35-0.22,2.25-1.14,2.67-2.62c0.43-1.49,0.45-2.63,0-3.64c-0.44-0.99-1.37-1.81-2.76-2.81c-0.14-0.09-0.32-0.22-0.55-0.37
					c-0.23-0.16-0.47-0.38-0.77-0.61c-0.63-0.44-1.28-1.12-2.09-1.86c-1.5-1.59-3.1-3.88-4.25-6.73c-0.25-0.73-0.59-1.44-0.8-2.21
					c-0.2-0.78-0.39-1.58-0.59-2.36c-0.12-0.39-0.19-0.8-0.23-1.21l-0.17-1.23c-0.06-0.41-0.12-0.82-0.18-1.22
					c-0.07-0.41-0.12-0.81-0.12-1.22c-0.04-0.82-0.07-1.63-0.11-2.41c-0.05-0.79-0.11-1.56-0.05-2.3c0.05-1.49,0.06-2.87,0.03-4.09
					L324.37,137.51z"/>
			</g>
			<path class="st8" d="M345.51,215.77c0,0,3.97,8.99,13.08,8.99s14.53-4.59,13.05-14.2C371.65,210.55,352.84,207.34,345.51,215.77z
				"/>
			<g>
				<g>
					<path class="st8" d="M373.84,268.22c1.33-6.86,2.22-18.09,2.12-28.27c0-5.08-0.29-9.91-0.6-13.75
						c-0.32-3.85-0.75-6.73-0.96-7.92c-1.08-6.13-3.95-8.48-8.04-7.1c-4.11,1.38-5.31,3.77-4.33,9.3c0.19,1.07,0.72,3.66,1.31,7.23
						c0.58,3.57,1.29,8.09,1.89,12.95c1.3,9.7,2.26,20.68,3.46,27.5L373.84,268.22z"/>
				</g>
			</g>
			<g>
				<g>
					<path class="st8" d="M354.89,269.01c0.3-7.19-0.12-18.67,0.01-28.82c0.05-5.07,0.24-9.81,0.52-13.48
						c0.28-3.68,0.65-6.28,0.8-7.31c0.37-2.69,0.35-4.35-0.29-5.44c-0.32-0.52-0.8-1.01-1.38-1.54c-0.3-0.28-0.56-0.63-0.85-0.99
						c-0.3-0.36-0.63-0.74-1.02-1.11c-0.39-0.37-0.78-0.69-1.2-0.94c-0.42-0.25-0.85-0.42-1.35-0.42c-1.02,0-2.02,0.41-2.92,1.18
						c-1.79,1.52-2.95,4.12-3.42,7.53c-0.19,1.33-0.47,4.49-0.46,8.59c0,4.1,0.27,9.16,0.85,14.44c1.11,10.58,3.4,22.06,5.62,28.99
						L354.89,269.01z"/>
				</g>
				<g>
					<path class="st8" d="M373.84,268.22c1.33-6.86,2.22-18.09,2.12-28.27c0-5.08-0.29-9.91-0.6-13.75
						c-0.32-3.85-0.75-6.73-0.96-7.92c-1.08-6.13-3.95-8.48-8.04-7.1c-4.11,1.38-5.31,3.77-4.33,9.3c0.19,1.07,0.72,3.66,1.31,7.23
						c0.58,3.57,1.29,8.09,1.89,12.95c1.3,9.7,2.26,20.68,3.46,27.5L373.84,268.22z"/>
				</g>
				<path class="st21" d="M374.67,220.12c-0.11-0.79-0.21-1.43-0.29-1.84c-0.49-2.79-1.36-4.79-2.54-6.02
					c-0.04-0.55-0.1-1.12-0.19-1.72c0,0-9.94-1.69-18.18,0.62c-0.24-0.28-0.5-0.56-0.8-0.85c-0.39-0.37-0.78-0.69-1.2-0.94
					c-0.42-0.25-0.85-0.42-1.35-0.42c-1.02,0-2.02,0.41-2.92,1.18c-1.79,1.52-2.95,4.12-3.42,7.53c-0.06,0.44-0.14,1.11-0.21,1.93
					C356.04,223.06,367.68,221.66,374.67,220.12z"/>
			</g>
			<path class="st22" d="M351.17,166.64c1.08,0.17,14.43,5.11,25.38-4.48c0,0,2.94,6.86,3.76,14.25c0,0-4.96,2.84-9.46,2.72
				c0,0-0.5,22.53,9.35,36.48c0,0-20.52,7.93-42.14,0c0,0,6.06-17.22,5.65-36.75c0,0-8.44-0.98-13.45-5.9c0,0,3.5-9.46,7.91-12.07
				C338.17,160.89,347.05,165.99,351.17,166.64z"/>
			<path class="st23" d="M370.85,179.13c4.5,0.12,9.46-2.72,9.46-2.72s-6,2.33-11.5,0.71c0,0-1.25,26.92,11.4,38.49
				C370.35,201.66,370.85,179.13,370.85,179.13z"/>
			<path class="st23" d="M347.15,177.77c-12.11-0.97-16.89-4.81-16.89-4.81c5.01,4.92,13.45,5.9,13.45,5.9
				c0.41,19.53-5.65,36.75-5.65,36.75C346.89,203.72,347.15,177.77,347.15,177.77z"/>
			<path class="st18" d="M396.06,148.5c0,0-2.53-0.95-1.47-4.91c1.06-3.95,0.69-5.17,0.35-6c-0.34-0.83,1.6-1.46,2.05,1.5
				c0.46,2.96,0.46,2.96,0.46,2.96s2.97-5.55,5.39-6.77c2.42-1.22,1.2,4.82,0.38,9.01C402.4,148.49,398.04,149.86,396.06,148.5z"/>
			<path class="st11" d="M371.18,266.21c-1.46,0.11-3.46,0.41-4.87,3.28c-0.48,0.98-0.5,1.87-0.33,2.61
				c0.33,1.4,1.64,2.35,3.08,2.35h5.16c1.95,0,3.52-1.74,3.16-3.65c-0.08-0.44-0.23-0.88-0.47-1.31
				C375.65,267.19,373.27,266.05,371.18,266.21z"/>
			<path class="st11" d="M352.04,265.41c-1.45,0.2-3.43,0.62-4.66,3.57c-0.42,1.01-0.39,1.9-0.17,2.63
				c0.42,1.38,1.78,2.24,3.22,2.15l5.15-0.32c1.94-0.12,3.41-1.95,2.92-3.84c-0.11-0.43-0.28-0.86-0.55-1.28
				C356.56,266.11,354.12,265.12,352.04,265.41z"/>
		</g>
	</g>
	<g>
		<g>
			<path class="st18" d="M109,263.05c3.02,3.97,6.53,11.77,1.65,20.45c-3.08,5.47-11.37,4.21-16.98-1.86
				c-5.62-6.07-5.25-13.96-2.75-18.65C93.41,258.31,104.16,256.68,109,263.05z"/>
			<g>
				<path class="st18" d="M103.72,296.51c-1.84,0-3.49-1.27-3.9-3.14c-1.67-7.54-0.58-10.93-0.21-11.79l7.34,3.18
					c0,0,0.05-0.08,0.1-0.26c-0.01,0.02-0.54,2.04,0.58,7.14c0.48,2.16-0.89,4.29-3.04,4.77
					C104.3,296.48,104.01,296.51,103.72,296.51z"/>
			</g>
		</g>
		<g>
			<path class="st18" d="M65.32,262.27c-0.5,2.7-0.8,6.4-0.13,10.45c0.29,2.03,0.88,4.12,1.64,6.17c0.77,2.05,1.83,4.03,3.02,5.84
				c2.39,3.65,5.49,6.44,8.11,8.32c2.65,1.87,4.81,2.91,5.71,3.31c2.33,1.03,4.2,1.24,5.52,0.85c1.33-0.4,2.1-1.4,2.39-2.91
				c0.57-3.07-0.65-4.58-4.27-6.14c-0.7-0.3-2.42-1.03-4.55-2.31c-2.11-1.29-4.63-3.16-6.74-5.69c-2.15-2.49-3.86-5.63-4.97-8.84
				c-1.15-3.2-1.65-6.43-2.05-8.94L65.32,262.27z"/>
		</g>
		<g>
			<path class="st18" d="M154.62,281.24c0.15-0.89,0.75-2.07,2.65-3.1c3.6-1.95,4.22-3.06,4.59-3.88c0.37-0.82,2.16,0.15,0.32,2.52
				c-0.62,0.8-1.03,1.33-1.3,1.68L154.62,281.24z"/>
			<path class="st7" d="M162.15,277.19L162.15,277.19c-0.46,0-0.84-0.38-0.84-0.84v-12.49c0-0.46,0.38-0.84,0.84-0.84l0,0
				c0.46,0,0.84,0.38,0.84,0.84v12.49C162.99,276.81,162.61,277.19,162.15,277.19z"/>
			<path class="st7" d="M161.31,263.85L161.31,263.85c0-0.46,0.38-0.84,0.84-0.84h11.55c0.46,0,0.84,0.38,0.84,0.84l0,0
				c0,0.46-0.38,0.84-0.84,0.84h-11.55C161.69,264.7,161.31,264.32,161.31,263.85z"/>
			<path class="st7" d="M173.7,256.32L173.7,256.32c0.46,0,0.84,0.38,0.84,0.84v6.69c0,0.46-0.38,0.84-0.84,0.84l0,0
				c-0.46,0-0.84-0.38-0.84-0.84v-6.69C172.86,256.7,173.23,256.32,173.7,256.32z"/>
			<path class="st7" d="M174.54,257.17L174.54,257.17c0,0.46-0.38,0.84-0.84,0.84h-8.14c-0.46,0-0.84-0.38-0.84-0.84l0,0
				c0-0.46,0.38-0.84,0.84-0.84h8.14C174.16,256.32,174.54,256.7,174.54,257.17z"/>
			<path class="st24" d="M169.04,259.96h-13.78c-0.98,0-1.78-0.8-1.78-1.78v-2.03c0-0.98,0.8-1.78,1.78-1.78h13.78
				c0.98,0,1.78,0.8,1.78,1.78v2.03C170.82,259.16,170.02,259.96,169.04,259.96z"/>
			<path class="st8" d="M162.15,290.99L162.15,290.99c-1.45,0-2.64-1.19-2.64-2.64v-15.62c0-1.45,1.19-2.64,2.64-2.64l0,0
				c1.45,0,2.64,1.19,2.64,2.64v15.62C164.79,289.8,163.6,290.99,162.15,290.99z"/>
			<path class="st18" d="M160.88,278.46c-0.54,0.69-0.54,0.69-0.54,0.69s6.07-1.67,8.62-0.76c2.55,0.91-1.82,5.85-6.39,6.84
				c-5.7,1.24-7.47-0.29-7.85-2.66c0,0-0.24-0.56-0.1-1.35L160.88,278.46z"/>
			<g>
				<path class="st18" d="M157.16,280.24c-4.96,1.16-12.82,3.16-19.93,4.44c-7.12,1.31-13.44,1.93-15.06,2.11
					c-4.2,0.5-5.8,1.9-5.71,5c0.09,3.07,2.22,4.45,6.78,3.9c1.76-0.2,8.5-1.3,15.81-3.55c7.32-2.22,15.14-5.62,19.53-8.51
					L157.16,280.24z"/>
			</g>
		</g>
		<g>
			<path class="st18" d="M115.82,407.13c1.1-3.31,2.16-7.77,2.79-12.63c0.65-4.86,1.03-10.13,1.17-15.09
				c0.28-9.93-0.29-18.69-0.52-20.95c-0.6-5.86-2.9-8.11-7.18-7.53c-4.29,0.59-5.89,3.15-5.32,8.78c0.22,2.18,1.34,10.56,2.26,20.05
				c0.46,4.74,0.85,9.75,1.14,14.4c0.31,4.65,0.37,8.89,0.56,12.19L115.82,407.13z"/>
		</g>
		<g>
			<path class="st18" d="M71.4,388.15c1.74,0.44,3.86,0.75,6.23,0.66c2.37-0.09,4.97-0.6,7.53-1.62c2.56-1.02,5.05-2.55,7.24-4.47
				c1.1-0.96,2.12-2.01,3.05-3.15c0.47-0.56,0.91-1.15,1.33-1.76c0.11-0.15,0.21-0.29,0.32-0.46l0.31-0.55l0.61-1.11
				c1.38-2.84,2.01-5.27,2.6-7.58c0.52-2.27,0.92-4.37,1.19-6.2c0.56-3.67,0.78-6.38,0.85-7.49c0.31-5.78-1.7-8.26-6.01-8.26
				c-4.33,0-6.24,2.21-6.53,7.54c-0.06,1.03-0.13,3.54-0.35,6.85c-0.1,1.66-0.27,3.49-0.5,5.41c-0.25,1.86-0.6,3.89-1.08,5.36
				l-0.17,0.47l-0.08,0.25c-0.04,0.09-0.1,0.2-0.15,0.29c-0.19,0.41-0.41,0.81-0.65,1.2c-0.47,0.8-1.01,1.57-1.61,2.3
				c-1.2,1.46-2.62,2.76-4.16,3.79c-1.54,1.03-3.19,1.81-4.84,2.34c-1.64,0.53-3.26,0.82-4.73,1.04L71.4,388.15z"/>
		</g>
		<path class="st22" d="M110.71,287.61c-1.08,0.17-12.36,3.14-20.72-0.77c0,0-4.71,4.49-5.53,11.88c0,0,2.22,0.92,6.58,1.38
			c0,0,9.48,6.61,3.22,21c-7.41,17.03-9.33,33.25-12.58,37.85c0,0,20.52,7.93,42.14,0c0,0-0.56-22.77-7.45-37.85
			c-5.16-11.28,1.64-13.5,1.8-21.27c0,0,3.08-0.18,4.98-1.87c0,0,1.53-9.42-2.89-12.04C120.26,285.93,114.83,286.96,110.71,287.61z"
			/>
		<path class="st18" d="M68.17,265.38c0,0,2.69-0.32,2.6-4.41c-0.08-4.09,0.57-5.19,1.09-5.91c0.53-0.72-1.2-1.8-2.35,0.97
			c-1.15,2.77-1.15,2.77-1.15,2.77s-1.55-6.1-3.61-7.87c-2.06-1.77-2.32,4.39-2.53,8.65C62.01,263.84,65.92,266.22,68.17,265.38z"/>
		<path class="st7" d="M110.6,403.66c0,0,4.64,0.96,6.3,0c0,0,2.27,1.22,5.77,0.96c3.5-0.26,5.86,0.19,5.42,2.24
			c-0.44,2.05-13.45,3.93-16.79,2.31c-1.8-0.87-0.7-5.95-0.7-5.95"/>
		<path class="st7" d="M75.08,382.31c0,0-2.49,4.03-2.15,5.92c0,0-1.93,1.72-2.88,5.1s-2.18,5.44-3.96,4.33
			c-1.77-1.11,0.9-13.99,3.56-16.57c1.44-1.39,5.83,1.37,5.83,1.37"/>
		<path class="st11" d="M110.83,265.93c0,0-8.51,10.3-10.39,30.63c0,0-10.08,2.56-16.91-1.54c0,0-1.37-33.53,11.62-37.01
			C108.13,254.53,110.83,265.93,110.83,265.93z"/>
		<path class="st18" d="M109.67,270.1c0,0-1.54-3.61-4.44-2.41s0.04,8.03,2.67,8.03C110.52,275.71,109.67,270.1,109.67,270.1z"/>
	</g>
	<g>
		<g>
			<path class="st18" d="M276.68,286.18c-3.54,4.41-6.69,13.14-1.42,23.13c3.32,6.3,11.68,7.27,18.24,0.56
				c6.55-6.71,6.38-17.81,3.69-23.19C294.5,281.29,282.36,279.11,276.68,286.18z"/>
			<g>
				<path class="st18" d="M283.44,325.62c-0.46,0-0.92-0.07-1.38-0.22c-2.39-0.76-3.7-3.32-2.94-5.7c0.95-2.97,0.59-7.12,0.37-8.47
					c-0.4-2.47,1.27-4.8,3.74-5.21c2.47-0.41,4.8,1.26,5.21,3.72c0.12,0.71,1.11,7.12-0.68,12.71
					C287.15,324.39,285.36,325.62,283.44,325.62z"/>
			</g>
		</g>
		<g>
			<path class="st18" d="M309.65,280.34c-0.49,2.72-0.7,6.26-1.25,10.03c-0.12,0.94-0.22,1.91-0.35,2.87
				c-0.16,0.96-0.32,1.92-0.48,2.89c-0.26,1.95-0.73,3.83-1.1,5.67c-0.9,3.61-1.88,6.92-3.03,9.18c-0.24,0.61-0.54,1.1-0.79,1.56
				c-0.27,0.45-0.46,0.92-0.7,1.23c-0.47,0.65-0.76,1.22-0.99,1.44c-1.02,1.43-1.52,2.26-1.6,3.31c-0.06,1.03,0.15,2.29,0.63,3.98
				c0.47,1.68,1.67,2.69,3.46,2.56c1.76-0.1,3.97-1.39,5.71-3.83c0.4-0.46,0.84-1.29,1.5-2.39c0.35-0.55,0.58-1.18,0.92-1.87
				c0.32-0.69,0.68-1.44,0.93-2.25c1.27-3.22,2.05-7.27,2.55-11.5c0.89-8.47-0.01-17.59-1.24-23.08L309.65,280.34z"/>
		</g>
		<path class="st18" d="M260.35,282.88c0.98-0.27,2.24-1.1,3.17-3.36c1.77-4.29,2.94-5.13,3.81-5.65c0.88-0.51-0.43-2.41-2.88-0.06
			c-0.82,0.79-1.37,1.32-1.73,1.67L260.35,282.88z"/>
		<path class="st2" d="M266.22,277.69l-12.24-4.16c-2.91-0.99-4.48-4.17-3.49-7.08l4.16-12.24c0.99-2.91,4.17-4.48,7.08-3.49
			l12.24,4.16c2.91,0.99,4.48,4.17,3.49,7.08l-4.16,12.24C272.31,277.11,269.12,278.68,266.22,277.69z"/>
		<path class="st18" d="M262.71,275.48c-0.72,0.69-0.72,0.69-0.72,0.69s1.15-7.04-0.19-9.81c-1.34-2.77-6.38,2.77-6.94,8.03
			c-0.7,6.58,1.23,8.39,3.95,8.53c0,0,0.66,0.2,1.53-0.05L262.71,275.48z"/>
		<g>
			<path class="st18" d="M310.19,282.88c-0.98-0.27-2.24-1.1-3.17-3.36c-1.77-4.29-2.94-5.13-3.81-5.65
				c-0.88-0.51,0.43-2.41,2.88-0.06c0.82,0.79,1.37,1.32,1.73,1.67L310.19,282.88z"/>
			<path class="st15" d="M306.05,277.69l-12.24-4.16c-2.91-0.99-4.48-4.17-3.49-7.08l4.16-12.24c0.99-2.91,4.17-4.48,7.08-3.49
				l12.24,4.16c2.91,0.99,4.48,4.17,3.49,7.08l-4.16,12.24C312.14,277.11,308.95,278.68,306.05,277.69z"/>
			<path class="st18" d="M307.82,275.48c0.72,0.69,0.72,0.69,0.72,0.69s-1.15-7.04,0.19-9.81c1.34-2.77,6.38,2.77,6.94,8.03
				c0.7,6.58-1.23,8.39-3.95,8.53c0,0-0.66,0.2-1.53-0.05L307.82,275.48z"/>
		</g>
		<g>
			<path class="st18" d="M255.55,280.91c-0.34,1.24-0.67,2.7-0.99,4.31c-0.19,0.8-0.27,1.65-0.36,2.53
				c-0.09,0.89-0.18,1.79-0.27,2.72c-0.11,0.93-0.05,1.89-0.07,2.86c0.02,0.97-0.04,1.96,0.05,2.95c0.09,1,0.18,1.99,0.27,2.98
				c0.07,1,0.32,1.98,0.47,2.95c0.73,3.89,1.97,7.54,3.41,10.29c0.32,0.7,0.69,1.33,1.03,1.91c0.35,0.58,0.63,1.12,0.96,1.57
				c0.64,0.9,1.1,1.59,1.42,1.96c1.59,1.97,3.29,2.95,4.72,3.08c1.46,0.12,2.68-0.62,3.61-2.1c1.86-3.02,1.8-4.73-0.43-7.39
				c-0.22-0.25-0.56-0.73-1.06-1.34c-0.25-0.3-0.48-0.69-0.77-1.08c-0.28-0.4-0.6-0.83-0.88-1.34c-1.26-1.93-2.53-4.65-3.57-7.73
				c-0.23-0.78-0.57-1.54-0.75-2.37c-0.21-0.82-0.42-1.64-0.63-2.47c-0.23-0.82-0.32-1.68-0.5-2.51c-0.14-0.84-0.36-1.66-0.44-2.5
				c-0.11-0.83-0.21-1.65-0.32-2.44c-0.11-0.8-0.24-1.57-0.28-2.33c-0.13-1.51-0.28-2.9-0.46-4.12L255.55,280.91z"/>
		</g>
		<path class="st22" d="M270.78,371.84c0,0,4.5,9.55,14.82,10.22c13.34,0.87,16.49-5.17,14.83-16.08
			C300.43,365.98,279.11,362.3,270.78,371.84z"/>
		<path class="st7" d="M307.95,430.74c-1.66,0.12-3.93,0.45-5.53,3.7c-0.55,1.11-0.58,2.12-0.38,2.96c0.37,1.59,1.85,2.67,3.49,2.67
			l5.85,0.01c2.21,0,4-1.97,3.59-4.13c-0.09-0.5-0.26-1-0.53-1.49C313.01,431.85,310.32,430.56,307.95,430.74z"/>
		<g>
			<g>
				<path class="st22" d="M310.9,432.57c0.32-7.99-0.58-20.79-1.95-32.24c-1.33-11.45-3.16-21.55-3.74-24.15
					c-1.5-6.73-4.44-9.11-9.17-7.84c-4.74,1.27-6.18,4.41-4.73,10.92c0.61,2.52,2.97,12.23,5.65,23.23
					c2.7,11.02,5.65,23.37,8.17,30.91L310.9,432.57z"/>
			</g>
		</g>
		<path class="st7" d="M269.36,432.04c-1.66,0.14-3.92,0.51-5.48,3.78c-0.95,2-0.25,3.65,0.44,4.63c0.69,0.34,1.27,0.63,1.95,0.97
			l7.88-0.09c1.2-0.01,2.21-0.91,2.35-2.1c0.13-1.05,0.07-2.35-0.61-3.55C274.44,433.09,271.74,431.83,269.36,432.04z"/>
		<g>
			<g>
				<path class="st22" d="M273.49,434.47c2-7.94,4.09-20.87,6.18-32.3c1.04-5.71,2.09-11.04,3.01-15.2c0.92-4.16,1.71-7.16,2.01-8.4
					c0.78-3.19,0.91-5.51,0.27-7.31c-0.64-1.79-2.06-3.07-4.37-3.9c-2.3-0.83-4.24-0.73-5.89,0.54c-1.64,1.26-2.97,3.7-3.85,7.31
					c-0.34,1.39-1.05,4.79-1.69,9.32c-0.65,4.53-1.22,10.19-1.6,16.16c-0.76,11.95-0.76,25.17,0.09,33.36L273.49,434.47z"/>
			</g>
		</g>
		<path class="st2" d="M281.07,317.79c1.23,0.2,7.55,3.3,20.94-11.53c0,0,6.45,8.09,7.36,16.47c0,0-3.57,4.77-8.68,4.63
			c0,0-1.87,24.74,5.19,43.05c0,0-15.95,9.14-35.1,1.43c0,0,0.09-18.06-0.34-40.2c0,0-5.9-2.09-10.29-10.55
			c0,0,2.93-8.31,7.94-11.26C268.09,309.82,276.41,317.04,281.07,317.79z"/>
		<path class="st18" d="M274.1,294.04c0,0-1.03-4.08-4.31-3.29c-3.27,0.79-1.28,8.51,1.5,8.95
			C274.07,300.13,274.1,294.04,274.1,294.04z"/>
		<path class="st18" d="M297.01,295.21c0,0,1.58-3.9,4.72-2.67c3.13,1.23,0.09,8.61-2.72,8.66
			C296.19,301.25,297.01,295.21,297.01,295.21z"/>
		<path class="st11" d="M271.81,290.36c0,0,1.77-8.94,11.57-10.41c9.8-1.47,14.85,2.38,16.29,11.1c1.45,8.72-4.56,17.41-13.97,16.96
			C276.29,307.56,270.06,299.43,271.81,290.36z"/>
	</g>
	<g>
		<rect x="375.63" y="398.77" class="st8" width="64.77" height="49.67"/>
		<polygon class="st11" points="392.88,387.98 375.63,398.77 440.41,398.77 423.16,387.98 		"/>
		<rect x="392.88" y="387.98" class="st9" width="30.27" height="10.8"/>
		<polygon class="st0" points="375.63,398.77 384.96,410.44 408.02,410.44 430.59,410.44 440.41,398.77 		"/>
		<polygon class="st0" points="423.16,387.98 440.41,393.38 453.91,402.6 440.41,398.77 		"/>
		<polygon class="st0" points="392.88,387.98 374.08,393.38 360.59,402.6 375.63,398.77 		"/>
	</g>
</g>
<g id="DESIGNED_BY_FREEPIK" class="st25">
	<g id="XMLID_76_" class="st26">
		<g id="XMLID_929_">
			<path id="XMLID_958_" class="st27" d="M181.09,472.13c-0.25,0-0.43,0.09-0.57,0.25c-0.13,0.17-0.2,0.42-0.2,0.75v2.39
				c-0.3-0.33-0.62-0.58-0.94-0.74c-0.32-0.16-0.71-0.24-1.18-0.24c-0.81,0-1.46,0.28-1.95,0.85c-0.49,0.57-0.74,1.36-0.74,2.37
				c0,0.48,0.06,0.92,0.19,1.33c0.12,0.41,0.31,0.77,0.55,1.07c0.24,0.3,0.53,0.54,0.86,0.7c0.33,0.16,0.69,0.25,1.08,0.25
				c0.29,0,0.56-0.04,0.81-0.12c0.25-0.08,0.48-0.2,0.69-0.36c0.21-0.16,0.43-0.36,0.64-0.61v0.16c0,0.3,0.07,0.53,0.22,0.69
				c0.14,0.16,0.33,0.24,0.55,0.24c0.23,0,0.41-0.08,0.55-0.23c0.14-0.15,0.21-0.39,0.21-0.69v-7.15c0-0.3-0.07-0.53-0.2-0.69
				C181.52,472.21,181.33,472.13,181.09,472.13z M180.02,478.97c-0.14,0.31-0.33,0.53-0.56,0.68c-0.24,0.15-0.5,0.22-0.78,0.22
				c-0.28,0-0.54-0.08-0.78-0.24c-0.24-0.15-0.42-0.39-0.56-0.7c-0.14-0.31-0.2-0.68-0.2-1.12c0-0.42,0.06-0.78,0.19-1.1
				c0.13-0.31,0.31-0.56,0.54-0.72c0.23-0.17,0.5-0.25,0.8-0.25c0.28,0,0.55,0.08,0.79,0.25c0.24,0.17,0.43,0.4,0.57,0.71
				c0.14,0.31,0.21,0.68,0.21,1.11C180.23,478.28,180.16,478.67,180.02,478.97z"/>
			<path id="XMLID_954_" class="st27" d="M188.45,478.05c0.23-0.12,0.35-0.38,0.35-0.79c0-0.44-0.11-0.87-0.34-1.29
				c-0.23-0.42-0.56-0.77-1.02-1.04c-0.45-0.27-1-0.4-1.63-0.4c-0.49,0-0.93,0.08-1.33,0.23c-0.4,0.16-0.74,0.38-1.01,0.67
				c-0.27,0.29-0.48,0.64-0.62,1.05c-0.14,0.41-0.21,0.85-0.21,1.33c0,1.02,0.29,1.82,0.87,2.42c0.58,0.59,1.39,0.89,2.43,0.89
				c0.46,0,0.86-0.06,1.21-0.18c0.35-0.12,0.64-0.27,0.87-0.45c0.23-0.18,0.4-0.37,0.52-0.56c0.11-0.2,0.17-0.37,0.17-0.51
				c0-0.17-0.05-0.29-0.16-0.39c-0.1-0.09-0.24-0.14-0.4-0.14c-0.15,0-0.27,0.04-0.36,0.11c-0.2,0.19-0.37,0.34-0.49,0.45
				s-0.27,0.22-0.42,0.31c-0.15,0.1-0.31,0.17-0.47,0.21c-0.16,0.04-0.34,0.07-0.53,0.07c-0.29,0-0.55-0.07-0.79-0.21
				c-0.24-0.14-0.43-0.35-0.58-0.64c-0.14-0.28-0.22-0.61-0.22-0.97h3.17C187.89,478.23,188.22,478.17,188.45,478.05z M184.3,477.32
				c0.06-0.55,0.21-0.96,0.47-1.24c0.26-0.28,0.59-0.42,0.99-0.42c0.42,0,0.76,0.14,1.02,0.41c0.26,0.28,0.41,0.69,0.45,1.25H184.3z
				"/>
			<path id="XMLID_952_" class="st27" d="M193.88,477.62c-0.32-0.17-0.73-0.32-1.23-0.44c-0.42-0.1-0.76-0.19-1-0.26
				c-0.24-0.07-0.43-0.16-0.58-0.27c-0.14-0.11-0.21-0.25-0.21-0.42c0-0.19,0.1-0.34,0.29-0.46c0.19-0.13,0.44-0.19,0.73-0.19
				c0.29,0,0.51,0.05,0.68,0.14c0.17,0.1,0.31,0.22,0.43,0.38c0.15,0.19,0.28,0.33,0.4,0.43c0.12,0.1,0.26,0.14,0.42,0.14
				c0.23,0,0.41-0.06,0.53-0.18c0.12-0.12,0.19-0.27,0.19-0.46c0-0.17-0.06-0.34-0.18-0.52c-0.12-0.18-0.29-0.34-0.51-0.49
				c-0.22-0.15-0.5-0.26-0.84-0.35c-0.33-0.09-0.71-0.13-1.13-0.13c-0.53,0-0.99,0.08-1.37,0.26c-0.38,0.17-0.66,0.4-0.86,0.69
				c-0.19,0.29-0.29,0.6-0.29,0.92c0,0.36,0.11,0.67,0.32,0.92c0.21,0.25,0.49,0.45,0.84,0.6c0.35,0.15,0.8,0.3,1.36,0.44
				c0.49,0.12,0.85,0.24,1.07,0.38c0.22,0.13,0.32,0.34,0.32,0.62c0,0.19-0.1,0.35-0.31,0.5c-0.21,0.14-0.47,0.22-0.8,0.22
				c-0.4,0-0.71-0.07-0.95-0.21c-0.23-0.14-0.43-0.36-0.6-0.65c-0.08-0.15-0.17-0.27-0.26-0.35c-0.09-0.08-0.22-0.12-0.39-0.12
				c-0.19,0-0.36,0.06-0.48,0.19c-0.13,0.13-0.19,0.28-0.19,0.46c0,0.27,0.1,0.54,0.3,0.8c0.2,0.27,0.5,0.49,0.92,0.67
				c0.42,0.18,0.91,0.27,1.5,0.27c0.61,0,1.13-0.08,1.55-0.25c0.43-0.16,0.75-0.41,0.96-0.72c0.22-0.32,0.33-0.7,0.33-1.15
				c0-0.3-0.08-0.56-0.25-0.79C194.44,477.99,194.2,477.79,193.88,477.62z"/>
			<path id="XMLID_950_" class="st27" d="M196.49,474.54c-0.24,0-0.43,0.08-0.58,0.24c-0.15,0.16-0.22,0.4-0.22,0.72v4.64
				c0,0.32,0.07,0.56,0.22,0.73c0.15,0.17,0.34,0.25,0.58,0.25c0.24,0,0.43-0.08,0.59-0.25c0.15-0.17,0.23-0.41,0.23-0.74v-4.68
				c0-0.29-0.08-0.51-0.23-0.68C196.92,474.62,196.72,474.54,196.49,474.54z"/>
			<path id="XMLID_949_" class="st27" d="M196.5,472.2c-0.22,0-0.41,0.07-0.57,0.22c-0.16,0.15-0.25,0.34-0.25,0.57
				c0,0.25,0.08,0.45,0.24,0.59c0.16,0.14,0.35,0.21,0.58,0.21c0.22,0,0.41-0.07,0.56-0.21c0.16-0.14,0.24-0.33,0.24-0.58
				c0-0.26-0.08-0.45-0.24-0.59C196.9,472.27,196.71,472.2,196.5,472.2z"/>
			<path id="XMLID_945_" class="st27" d="M203.63,474.54c-0.22,0-0.4,0.08-0.53,0.23c-0.14,0.15-0.21,0.37-0.21,0.65v0.22
				c-0.29-0.38-0.6-0.65-0.94-0.83c-0.34-0.17-0.73-0.26-1.19-0.26c-0.38,0-0.74,0.07-1.06,0.2c-0.32,0.14-0.6,0.34-0.85,0.61
				c-0.24,0.27-0.43,0.6-0.57,0.99c-0.13,0.39-0.2,0.83-0.2,1.32c0,0.65,0.11,1.23,0.33,1.73c0.22,0.5,0.53,0.89,0.93,1.16
				c0.41,0.28,0.88,0.41,1.42,0.41c0.45,0,0.84-0.09,1.17-0.27c0.33-0.18,0.61-0.45,0.86-0.8c-0.01,0.53-0.02,0.92-0.04,1.16
				c-0.02,0.24-0.07,0.46-0.16,0.67c-0.09,0.21-0.25,0.37-0.49,0.49c-0.23,0.12-0.56,0.18-0.98,0.18c-0.21,0-0.39-0.02-0.55-0.06
				c-0.16-0.04-0.29-0.09-0.41-0.17c-0.11-0.08-0.22-0.17-0.31-0.28c-0.09-0.11-0.18-0.22-0.27-0.32c-0.18-0.21-0.39-0.31-0.62-0.31
				c-0.19,0-0.35,0.06-0.49,0.19c-0.14,0.12-0.2,0.28-0.2,0.48c0,0.26,0.12,0.52,0.36,0.76c0.24,0.25,0.58,0.45,1.01,0.61
				c0.44,0.16,0.94,0.23,1.5,0.23c0.61,0,1.12-0.06,1.53-0.18c0.41-0.12,0.74-0.31,0.99-0.56c0.25-0.25,0.44-0.57,0.55-0.96
				c0.12-0.39,0.17-0.85,0.17-1.39v-4.71c0-0.38-0.05-0.68-0.16-0.88C204.15,474.65,203.94,474.54,203.63,474.54z M202.6,478.91
				c-0.15,0.29-0.35,0.51-0.59,0.65c-0.24,0.14-0.49,0.22-0.76,0.22c-0.46,0-0.83-0.17-1.11-0.5c-0.29-0.34-0.43-0.83-0.43-1.49
				c0-0.65,0.14-1.15,0.42-1.5c0.28-0.35,0.65-0.53,1.11-0.53c0.48,0,0.86,0.18,1.15,0.55c0.29,0.37,0.44,0.88,0.44,1.54
				C202.82,478.26,202.75,478.62,202.6,478.91z"/>
			<path id="XMLID_944_" class="st27" d="M210.98,475.61c-0.16-0.34-0.42-0.6-0.75-0.79c-0.34-0.19-0.72-0.28-1.15-0.28
				c-0.44,0-0.83,0.09-1.17,0.26c-0.34,0.18-0.65,0.45-0.93,0.83v-0.2c0-0.19-0.03-0.36-0.1-0.49c-0.07-0.13-0.16-0.23-0.28-0.3
				c-0.11-0.07-0.24-0.1-0.39-0.1c-0.23,0-0.42,0.08-0.55,0.23c-0.13,0.15-0.2,0.38-0.2,0.69v4.68c0,0.32,0.08,0.56,0.23,0.73
				c0.15,0.17,0.34,0.25,0.58,0.25c0.24,0,0.44-0.08,0.59-0.25c0.15-0.16,0.23-0.41,0.23-0.74v-2.03c0-0.66,0.04-1.11,0.12-1.35
				c0.11-0.3,0.28-0.54,0.52-0.71c0.24-0.17,0.5-0.26,0.79-0.26c0.44,0,0.74,0.14,0.89,0.42c0.15,0.28,0.22,0.69,0.22,1.23v2.7
				c0,0.32,0.07,0.56,0.23,0.73c0.15,0.17,0.35,0.25,0.59,0.25c0.24,0,0.43-0.08,0.58-0.25c0.15-0.17,0.22-0.41,0.22-0.74v-3.02
				c0-0.36-0.02-0.65-0.05-0.88C211.15,476.02,211.09,475.81,210.98,475.61z"/>
			<path id="XMLID_939_" class="st27" d="M217.82,478.05c0.23-0.12,0.35-0.38,0.35-0.79c0-0.44-0.11-0.87-0.34-1.29
				c-0.23-0.42-0.57-0.77-1.02-1.04c-0.45-0.27-1-0.4-1.63-0.4c-0.49,0-0.93,0.08-1.33,0.23c-0.4,0.16-0.74,0.38-1.01,0.67
				c-0.27,0.29-0.48,0.64-0.62,1.05c-0.14,0.41-0.21,0.85-0.21,1.33c0,1.02,0.29,1.82,0.87,2.42c0.58,0.59,1.39,0.89,2.43,0.89
				c0.46,0,0.86-0.06,1.21-0.18c0.35-0.12,0.64-0.27,0.87-0.45c0.23-0.18,0.41-0.37,0.52-0.56c0.11-0.2,0.17-0.37,0.17-0.51
				c0-0.17-0.05-0.29-0.15-0.39c-0.1-0.09-0.24-0.14-0.4-0.14c-0.15,0-0.27,0.04-0.36,0.11c-0.2,0.19-0.37,0.34-0.49,0.45
				c-0.13,0.11-0.27,0.22-0.42,0.31c-0.15,0.1-0.31,0.17-0.47,0.21c-0.16,0.04-0.34,0.07-0.53,0.07c-0.29,0-0.55-0.07-0.79-0.21
				c-0.24-0.14-0.43-0.35-0.58-0.64c-0.14-0.28-0.22-0.61-0.22-0.97h3.17C217.26,478.23,217.59,478.17,217.82,478.05z
				 M213.67,477.32c0.06-0.55,0.21-0.96,0.47-1.24c0.26-0.28,0.59-0.42,0.99-0.42c0.42,0,0.76,0.14,1.02,0.41
				c0.26,0.28,0.41,0.69,0.45,1.25H213.67z"/>
			<path id="XMLID_936_" class="st27" d="M224.21,472.13c-0.25,0-0.43,0.09-0.57,0.25c-0.13,0.17-0.2,0.42-0.2,0.75v2.39
				c-0.3-0.33-0.62-0.58-0.94-0.74c-0.32-0.16-0.71-0.24-1.18-0.24c-0.81,0-1.46,0.28-1.95,0.85c-0.49,0.57-0.74,1.36-0.74,2.37
				c0,0.48,0.06,0.92,0.19,1.33c0.12,0.41,0.31,0.77,0.55,1.07c0.24,0.3,0.53,0.54,0.86,0.7c0.33,0.16,0.69,0.25,1.08,0.25
				c0.29,0,0.56-0.04,0.81-0.12c0.25-0.08,0.48-0.2,0.69-0.36c0.21-0.16,0.43-0.36,0.64-0.61v0.16c0,0.3,0.07,0.53,0.22,0.69
				c0.14,0.16,0.33,0.24,0.55,0.24c0.23,0,0.41-0.08,0.55-0.23c0.14-0.15,0.21-0.39,0.21-0.69v-7.15c0-0.3-0.07-0.53-0.2-0.69
				C224.64,472.21,224.45,472.13,224.21,472.13z M223.14,478.97c-0.14,0.31-0.33,0.53-0.56,0.68c-0.24,0.15-0.5,0.22-0.78,0.22
				c-0.28,0-0.54-0.08-0.78-0.24c-0.24-0.15-0.43-0.39-0.56-0.7c-0.14-0.31-0.21-0.68-0.21-1.12c0-0.42,0.06-0.78,0.19-1.1
				c0.13-0.31,0.31-0.56,0.54-0.72c0.23-0.17,0.5-0.25,0.8-0.25c0.28,0,0.55,0.08,0.79,0.25c0.24,0.17,0.43,0.4,0.57,0.71
				c0.14,0.31,0.21,0.68,0.21,1.11C223.35,478.28,223.28,478.67,223.14,478.97z"/>
			<path id="XMLID_933_" class="st27" d="M233.59,474.94c-0.41-0.25-0.88-0.38-1.42-0.38c-0.47,0-0.86,0.08-1.18,0.25
				c-0.32,0.17-0.63,0.41-0.93,0.73v-2.48c0-0.3-0.07-0.52-0.2-0.69c-0.13-0.16-0.33-0.24-0.58-0.24c-0.24,0-0.42,0.08-0.56,0.25
				c-0.13,0.17-0.2,0.42-0.2,0.74v7.08c0,0.3,0.07,0.54,0.2,0.69c0.14,0.16,0.32,0.23,0.55,0.23c0.23,0,0.41-0.08,0.56-0.23
				c0.15-0.16,0.22-0.39,0.22-0.69v-0.16c0.18,0.21,0.32,0.36,0.43,0.46c0.11,0.1,0.24,0.2,0.39,0.3c0.15,0.1,0.34,0.17,0.56,0.23
				c0.22,0.06,0.45,0.09,0.7,0.09c0.41,0,0.78-0.08,1.12-0.25c0.34-0.16,0.63-0.4,0.86-0.7c0.24-0.3,0.42-0.66,0.54-1.06
				c0.12-0.41,0.19-0.86,0.19-1.35c0-0.67-0.11-1.24-0.34-1.72C234.31,475.56,233.99,475.19,233.59,474.94z M232.8,479.35
				c-0.29,0.35-0.65,0.53-1.05,0.53c-0.48,0-0.87-0.17-1.16-0.52c-0.29-0.35-0.44-0.84-0.44-1.49c0-0.44,0.07-0.82,0.21-1.14
				c0.14-0.32,0.33-0.56,0.57-0.73c0.24-0.17,0.52-0.25,0.83-0.25c0.3,0,0.56,0.08,0.79,0.25c0.23,0.17,0.4,0.41,0.52,0.72
				c0.12,0.31,0.18,0.68,0.18,1.1C233.24,478.49,233.09,478.99,232.8,479.35z"/>
			<path id="XMLID_931_" class="st27" d="M240.53,474.64c-0.11-0.07-0.23-0.1-0.35-0.1c-0.17,0-0.3,0.03-0.39,0.09
				c-0.09,0.06-0.18,0.17-0.26,0.34c-0.08,0.17-0.18,0.41-0.28,0.71l-1.3,3.71l-1.37-3.99c-0.09-0.28-0.2-0.49-0.31-0.64
				c-0.12-0.15-0.3-0.22-0.53-0.22c-0.13,0-0.26,0.04-0.39,0.11c-0.12,0.07-0.22,0.17-0.29,0.29c-0.07,0.12-0.11,0.25-0.11,0.38
				c0,0.13,0.06,0.34,0.18,0.63l1.99,5.02l-0.15,0.36c-0.11,0.26-0.21,0.47-0.29,0.6c-0.09,0.14-0.18,0.23-0.29,0.29
				c-0.11,0.06-0.25,0.08-0.44,0.08c-0.07,0-0.16-0.01-0.27-0.04c-0.08-0.02-0.17-0.04-0.26-0.04c-0.22,0-0.39,0.05-0.5,0.15
				c-0.11,0.1-0.17,0.25-0.17,0.43c0,0.27,0.12,0.46,0.36,0.56c0.24,0.1,0.59,0.15,1.07,0.15c0.49,0,0.87-0.07,1.16-0.22
				c0.29-0.15,0.52-0.36,0.69-0.64c0.17-0.28,0.35-0.66,0.53-1.15l2.11-5.53c0.05-0.14,0.09-0.28,0.13-0.42
				c0.04-0.14,0.06-0.25,0.08-0.32c0-0.12-0.03-0.24-0.09-0.35C240.73,474.79,240.64,474.71,240.53,474.64z"/>
		</g>
		<g id="XMLID_365_">
			<g id="XMLID_380_">
				<path id="XMLID_928_" class="st27" d="M262.93,472.13c-0.53,0-0.95,0.07-1.26,0.2c-0.31,0.14-0.53,0.35-0.65,0.65
					c-0.13,0.3-0.19,0.7-0.19,1.21v0.49h-0.39c-0.54,0-0.81,0.19-0.81,0.58c0,0.17,0.07,0.32,0.2,0.42
					c0.13,0.11,0.32,0.16,0.56,0.16h0.45v4.29c0,0.32,0.07,0.56,0.23,0.73c0.15,0.17,0.34,0.25,0.57,0.25
					c0.24,0,0.44-0.08,0.59-0.25c0.16-0.17,0.23-0.41,0.23-0.73v-4.29h0.4c0.29,0,0.52-0.04,0.68-0.11c0.17-0.07,0.25-0.24,0.25-0.5
					c0-0.37-0.31-0.56-0.93-0.56h-0.4v-0.39c0-0.32,0.04-0.57,0.12-0.74c0.09-0.17,0.27-0.26,0.57-0.26c0.11,0,0.24,0.01,0.39,0.03
					c0.16,0.03,0.27,0.04,0.33,0.04c0.13,0,0.25-0.05,0.35-0.16c0.1-0.11,0.15-0.24,0.15-0.38
					C264.35,472.36,263.88,472.13,262.93,472.13z"/>
				<path id="XMLID_926_" class="st27" d="M268.09,474.79c-0.32-0.17-0.65-0.25-0.99-0.25c-0.34,0-0.61,0.08-0.82,0.25
					c-0.2,0.17-0.4,0.42-0.59,0.75c-0.01-0.33-0.08-0.58-0.2-0.75c-0.12-0.17-0.31-0.25-0.58-0.25c-0.53,0-0.79,0.36-0.79,1.09v4.51
					c0,0.32,0.08,0.57,0.23,0.73c0.15,0.17,0.34,0.25,0.58,0.25c0.24,0,0.43-0.08,0.59-0.25c0.15-0.16,0.23-0.41,0.23-0.74v-1.36
					c0-0.49,0.01-0.9,0.04-1.24c0.03-0.34,0.09-0.63,0.17-0.88c0.08-0.24,0.2-0.42,0.35-0.55c0.15-0.12,0.34-0.19,0.58-0.19
					c0.17,0,0.37,0.04,0.6,0.11c0.23,0.07,0.37,0.11,0.43,0.11c0.16,0,0.3-0.06,0.44-0.19c0.13-0.13,0.2-0.29,0.2-0.49
					C268.57,475.19,268.41,474.97,268.09,474.79z"/>
				<path id="XMLID_922_" class="st27" d="M274.18,478.05c0.23-0.12,0.35-0.38,0.35-0.79c0-0.44-0.11-0.87-0.34-1.3
					c-0.22-0.42-0.57-0.77-1.02-1.03c-0.45-0.27-1-0.4-1.63-0.4c-0.49,0-0.93,0.08-1.33,0.23c-0.4,0.16-0.74,0.38-1.01,0.67
					c-0.28,0.3-0.48,0.64-0.62,1.05c-0.14,0.41-0.22,0.85-0.22,1.33c0,1.02,0.29,1.82,0.87,2.42c0.58,0.59,1.38,0.89,2.43,0.89
					c0.45,0,0.86-0.06,1.21-0.18c0.35-0.12,0.64-0.27,0.87-0.45c0.23-0.18,0.4-0.37,0.52-0.57c0.11-0.19,0.17-0.37,0.17-0.51
					c0-0.17-0.05-0.29-0.15-0.39c-0.1-0.09-0.24-0.14-0.41-0.14c-0.15,0-0.27,0.04-0.36,0.11c-0.2,0.19-0.37,0.34-0.49,0.45
					c-0.13,0.11-0.26,0.22-0.42,0.31c-0.15,0.1-0.31,0.17-0.47,0.21c-0.16,0.05-0.34,0.07-0.53,0.07c-0.29,0-0.55-0.07-0.79-0.21
					c-0.24-0.14-0.43-0.36-0.58-0.64c-0.14-0.28-0.22-0.61-0.22-0.97h3.17C273.62,478.23,273.94,478.17,274.18,478.05z
					 M270.02,477.31c0.05-0.55,0.21-0.96,0.47-1.24c0.26-0.28,0.59-0.42,1-0.42c0.43,0,0.76,0.14,1.02,0.41
					c0.26,0.27,0.41,0.69,0.45,1.24H270.02z"/>
				<path id="XMLID_919_" class="st27" d="M280.92,478.05c0.23-0.12,0.35-0.38,0.35-0.79c0-0.44-0.12-0.87-0.34-1.3
					c-0.22-0.42-0.56-0.77-1.01-1.03c-0.46-0.27-1-0.4-1.63-0.4c-0.49,0-0.93,0.08-1.33,0.23c-0.4,0.16-0.74,0.38-1.01,0.67
					c-0.27,0.3-0.48,0.64-0.62,1.05c-0.14,0.41-0.22,0.85-0.22,1.33c0,1.02,0.29,1.82,0.87,2.42c0.58,0.59,1.39,0.89,2.43,0.89
					c0.45,0,0.86-0.06,1.21-0.18c0.35-0.12,0.64-0.27,0.87-0.45c0.23-0.18,0.41-0.37,0.52-0.57c0.12-0.19,0.17-0.37,0.17-0.51
					c0-0.17-0.05-0.29-0.15-0.39c-0.1-0.09-0.24-0.14-0.41-0.14c-0.15,0-0.27,0.04-0.36,0.11c-0.2,0.19-0.37,0.34-0.49,0.45
					c-0.13,0.11-0.26,0.22-0.42,0.31c-0.15,0.1-0.31,0.17-0.47,0.21c-0.16,0.05-0.33,0.07-0.53,0.07c-0.29,0-0.56-0.07-0.79-0.21
					c-0.24-0.14-0.43-0.36-0.58-0.64c-0.14-0.28-0.22-0.61-0.22-0.97h3.17C280.35,478.23,280.68,478.17,280.92,478.05z
					 M276.76,477.31c0.05-0.55,0.21-0.96,0.47-1.24c0.26-0.28,0.59-0.42,1-0.42c0.42,0,0.76,0.14,1.03,0.41
					c0.26,0.27,0.41,0.69,0.45,1.24H276.76z"/>
				<path id="XMLID_390_" class="st27" d="M286.93,474.94c-0.42-0.26-0.88-0.39-1.38-0.39c-0.42,0-0.79,0.09-1.11,0.27
					c-0.33,0.18-0.65,0.45-0.95,0.83v-0.19c0-0.3-0.07-0.52-0.22-0.68c-0.14-0.16-0.33-0.23-0.56-0.23c-0.23,0-0.42,0.08-0.55,0.23
					c-0.13,0.15-0.2,0.38-0.2,0.69v7c0,0.35,0.05,0.62,0.15,0.81c0.1,0.18,0.3,0.27,0.61,0.27c0.52,0,0.78-0.36,0.78-1.07v-2.43
					c0.29,0.36,0.59,0.63,0.9,0.82c0.31,0.19,0.7,0.28,1.17,0.28c0.38,0,0.74-0.08,1.08-0.23c0.33-0.15,0.62-0.37,0.87-0.65
					c0.25-0.28,0.44-0.63,0.58-1.05c0.14-0.42,0.21-0.88,0.21-1.38c0-0.68-0.12-1.26-0.37-1.76
					C287.68,475.57,287.35,475.2,286.93,474.94z M286.45,478.94c-0.14,0.31-0.32,0.55-0.55,0.7c-0.23,0.15-0.48,0.23-0.75,0.23
					c-0.45,0-0.83-0.18-1.13-0.54c-0.31-0.36-0.46-0.86-0.46-1.5c0-0.69,0.16-1.2,0.46-1.56c0.31-0.35,0.68-0.53,1.13-0.53
					c0.28,0,0.54,0.08,0.77,0.25c0.23,0.16,0.41,0.4,0.54,0.71c0.13,0.31,0.2,0.67,0.2,1.1
					C286.66,478.25,286.59,478.63,286.45,478.94z"/>
				<path id="XMLID_389_" class="st27" d="M289.9,474.54c-0.24,0-0.43,0.08-0.58,0.24c-0.15,0.16-0.22,0.4-0.22,0.72v4.64
					c0,0.31,0.08,0.55,0.22,0.73c0.15,0.17,0.34,0.25,0.58,0.25s0.43-0.08,0.59-0.25c0.15-0.16,0.23-0.41,0.23-0.73v-4.69
					c0-0.29-0.08-0.51-0.23-0.67C290.33,474.62,290.14,474.54,289.9,474.54z"/>
				<path id="XMLID_388_" class="st27" d="M289.92,472.2c-0.22,0-0.41,0.08-0.57,0.22c-0.17,0.15-0.25,0.34-0.25,0.57
					c0,0.25,0.08,0.45,0.24,0.59c0.16,0.14,0.35,0.21,0.58,0.21c0.22,0,0.41-0.07,0.57-0.21c0.16-0.14,0.24-0.33,0.24-0.58
					c0-0.26-0.08-0.45-0.24-0.59C290.31,472.27,290.13,472.2,289.92,472.2z"/>
				<path id="XMLID_387_" class="st27" d="M297.26,479.57l-1.66-2.61l0.86-0.79c0.44-0.4,0.66-0.71,0.66-0.95
					c0-0.19-0.07-0.35-0.2-0.48c-0.14-0.13-0.31-0.19-0.51-0.19c-0.17,0-0.31,0.04-0.43,0.13c-0.12,0.09-0.29,0.25-0.52,0.49
					l-1.82,1.91v-3.93c0-0.33-0.07-0.58-0.22-0.75c-0.15-0.17-0.34-0.26-0.59-0.26c-0.26,0-0.46,0.09-0.6,0.28
					c-0.14,0.19-0.21,0.46-0.21,0.82v6.91c0,0.32,0.07,0.57,0.21,0.73c0.14,0.17,0.34,0.25,0.59,0.25c0.21,0,0.41-0.08,0.57-0.25
					c0.16-0.17,0.25-0.41,0.25-0.72v-1.29l0.88-0.83l1.43,2.35c0.18,0.28,0.33,0.47,0.44,0.58c0.11,0.11,0.26,0.16,0.46,0.16
					c0.23,0,0.41-0.07,0.55-0.22c0.14-0.15,0.21-0.35,0.21-0.61c0-0.09-0.03-0.19-0.08-0.29
					C297.47,479.91,297.38,479.76,297.26,479.57z"/>
				<path id="XMLID_386_" class="st27" d="M299.45,479.34c-0.25,0-0.46,0.09-0.63,0.26c-0.17,0.17-0.26,0.38-0.26,0.62
					c0,0.29,0.09,0.51,0.27,0.67c0.18,0.16,0.39,0.24,0.63,0.24c0.24,0,0.44-0.08,0.62-0.24c0.17-0.16,0.26-0.38,0.26-0.66
					c0-0.24-0.09-0.45-0.26-0.63C299.91,479.43,299.7,479.34,299.45,479.34z"/>
				<path id="XMLID_385_" class="st27" d="M306.83,478.42c-0.17,0-0.31,0.05-0.42,0.16c-0.11,0.1-0.22,0.25-0.32,0.43
					c-0.18,0.31-0.38,0.54-0.62,0.69c-0.23,0.15-0.51,0.22-0.83,0.22c-0.24,0-0.46-0.04-0.67-0.14c-0.2-0.09-0.37-0.23-0.52-0.41
					c-0.14-0.18-0.25-0.4-0.33-0.65c-0.08-0.26-0.11-0.54-0.11-0.84c0-0.65,0.15-1.16,0.44-1.53c0.29-0.38,0.68-0.56,1.16-0.56
					c0.33,0,0.61,0.08,0.82,0.23c0.22,0.15,0.42,0.38,0.62,0.67c0.11,0.16,0.21,0.27,0.3,0.34c0.09,0.07,0.2,0.1,0.34,0.1
					c0.2,0,0.38-0.07,0.52-0.2c0.14-0.13,0.21-0.3,0.21-0.49c0-0.19-0.06-0.4-0.19-0.62c-0.13-0.22-0.31-0.42-0.56-0.62
					c-0.25-0.19-0.54-0.35-0.89-0.47c-0.35-0.12-0.74-0.18-1.16-0.18c-0.67,0-1.26,0.14-1.75,0.42c-0.49,0.28-0.86,0.67-1.11,1.18
					c-0.26,0.51-0.39,1.1-0.39,1.76c0,0.98,0.28,1.76,0.84,2.35c0.56,0.58,1.34,0.88,2.35,0.88c0.47,0,0.89-0.07,1.27-0.19
					c0.38-0.13,0.69-0.29,0.93-0.5c0.25-0.21,0.43-0.42,0.55-0.66c0.12-0.23,0.18-0.45,0.18-0.65c0-0.17-0.07-0.33-0.2-0.48
					C307.2,478.49,307.03,478.42,306.83,478.42z"/>
				<path id="XMLID_382_" class="st27" d="M313.65,475.45c-0.29-0.29-0.63-0.52-1.03-0.67c-0.4-0.16-0.85-0.24-1.34-0.24
					c-0.48,0-0.92,0.08-1.33,0.23c-0.4,0.16-0.74,0.38-1.02,0.67c-0.28,0.29-0.5,0.64-0.65,1.04c-0.15,0.41-0.22,0.86-0.22,1.35
					c0,0.49,0.08,0.93,0.22,1.33c0.15,0.4,0.37,0.75,0.66,1.05c0.28,0.29,0.63,0.52,1.02,0.68c0.39,0.16,0.83,0.24,1.33,0.24
					c0.49,0,0.94-0.08,1.34-0.23c0.39-0.16,0.74-0.38,1.02-0.67c0.29-0.29,0.5-0.64,0.66-1.05c0.15-0.41,0.22-0.85,0.22-1.34
					c0-0.49-0.08-0.93-0.22-1.34C314.15,476.1,313.93,475.75,313.65,475.45z M312.46,479.37c-0.29,0.37-0.68,0.56-1.17,0.56
					c-0.32,0-0.6-0.09-0.85-0.25c-0.24-0.17-0.42-0.41-0.55-0.73c-0.13-0.32-0.19-0.68-0.19-1.11c0-0.43,0.07-0.8,0.2-1.12
					c0.13-0.32,0.31-0.56,0.56-0.73c0.24-0.16,0.52-0.25,0.84-0.25c0.49,0,0.88,0.18,1.17,0.55c0.29,0.37,0.44,0.88,0.44,1.54
					C312.89,478.49,312.74,479,312.46,479.37z"/>
				<path id="XMLID_381_" class="st27" d="M323.57,474.81c-0.32-0.17-0.7-0.26-1.15-0.26c-0.38,0-0.73,0.08-1.04,0.24
					c-0.31,0.16-0.61,0.41-0.88,0.74c-0.19-0.33-0.43-0.57-0.72-0.74c-0.29-0.16-0.64-0.24-1.05-0.24c-0.39,0-0.75,0.08-1.07,0.24
					c-0.32,0.16-0.62,0.4-0.9,0.74v-0.15c0-0.26-0.07-0.47-0.22-0.62c-0.15-0.14-0.33-0.22-0.56-0.22c-0.23,0-0.41,0.08-0.56,0.24
					c-0.14,0.16-0.21,0.39-0.21,0.69v4.64c0,0.34,0.08,0.59,0.24,0.76c0.16,0.17,0.36,0.26,0.6,0.26c0.25,0,0.45-0.09,0.6-0.26
					c0.15-0.17,0.23-0.43,0.23-0.76v-2.19c0-0.68,0.09-1.21,0.25-1.57c0.17-0.37,0.52-0.55,1.05-0.55c0.26,0,0.46,0.07,0.58,0.22
					c0.12,0.14,0.2,0.33,0.23,0.55c0.03,0.23,0.04,0.54,0.04,0.95v2.58c0,0.34,0.08,0.59,0.23,0.77c0.15,0.17,0.35,0.25,0.59,0.25
					c0.25,0,0.45-0.08,0.61-0.25c0.16-0.17,0.23-0.43,0.23-0.77v-2.15c0-0.69,0.06-1.18,0.18-1.45c0.11-0.21,0.26-0.38,0.45-0.51
					c0.19-0.12,0.39-0.19,0.61-0.19c0.26,0,0.46,0.07,0.6,0.21c0.13,0.14,0.21,0.32,0.24,0.53c0.03,0.21,0.04,0.49,0.04,0.84v2.72
					c0,0.34,0.08,0.59,0.23,0.76c0.16,0.17,0.36,0.26,0.6,0.26c0.25,0,0.46-0.08,0.61-0.25c0.15-0.17,0.23-0.43,0.23-0.77v-3.16
					c0-0.63-0.07-1.09-0.21-1.39C324.13,475.24,323.89,474.99,323.57,474.81z"/>
			</g>
			<g id="XMLID_366_">
				<path id="XMLID_379_" class="st27" d="M245.27,477.44c0,0,0-0.01,0-0.01C245.27,477.44,245.27,477.44,245.27,477.44z"/>
				<path id="XMLID_378_" class="st27" d="M245.35,477.96C245.36,477.96,245.36,477.96,245.35,477.96
					c-0.03-0.15-0.05-0.29-0.07-0.44C245.3,477.67,245.33,477.82,245.35,477.96z"/>
				<path id="XMLID_377_" class="st27" d="M245.89,479.47c0-0.01-0.01-0.01-0.01-0.02C245.88,479.45,245.89,479.46,245.89,479.47z"
					/>
				<path id="XMLID_376_" class="st27" d="M245.84,479.37c-0.01-0.03-0.03-0.06-0.04-0.08
					C245.81,479.31,245.83,479.34,245.84,479.37z"/>
				<path id="XMLID_375_" class="st27" d="M245.51,478.54c0.08,0.25,0.18,0.49,0.29,0.72C245.68,479.03,245.59,478.79,245.51,478.54
					L245.51,478.54z"/>
				<path id="XMLID_374_" class="st27" d="M250.74,470.68l-0.08-0.26c0.3-0.06,0.52-0.33,0.52-0.65c0-0.36-0.3-0.66-0.66-0.66
					c-0.36,0-0.66,0.3-0.66,0.66c0,0.32,0.22,0.58,0.52,0.65l0.08,0.29c-1.02,0.14-1.83,0.54-1.83,0.54l0.14,0.44
					c0.62-0.21,1.15-0.33,1.64-0.38c0.48-0.05,0.83-0.07,1.13-0.07c0.31,0,0.54,0.03,0.81,0.07l0.08-0.48
					C252.43,470.83,251.7,470.6,250.74,470.68z"/>
				<path id="XMLID_373_" class="st27" d="M245.45,473.19c-0.02,0.02-0.5,0.46-0.88,1.28c-0.02-0.03-0.04-0.05-0.06-0.07
					c-0.11-0.12-0.27-0.19-0.47-0.18c0,0-0.01,0-0.01,0c-0.12,0-0.21-0.04-0.27-0.09c0.06-0.07,0.09-0.16,0.09-0.26
					c0-0.23-0.19-0.42-0.42-0.42c-0.23,0-0.42,0.19-0.42,0.42c0,0.23,0.19,0.42,0.42,0.42c0.04,0,0.07,0,0.11-0.01
					c0.1,0.11,0.27,0.21,0.5,0.21c0.12,0,0.21,0.03,0.27,0.1c0.07,0.08,0.09,0.18,0.1,0.27c0,0,0,0,0,0
					c-0.27,0.74-0.19,1.67-0.19,1.67l0.66,0.03c0.01-0.34,0.06-0.92,0.23-1.39c0.33-0.91,0.74-1.47,0.76-1.5l0,0
					c0.02-0.03,0.05-0.06,0.07-0.09l-0.2-0.14L245.45,473.19z"/>
				<path id="XMLID_372_" class="st27" d="M257.29,471.79c-0.23,0-0.42,0.19-0.42,0.42c0,0.04,0.01,0.07,0.02,0.1
					c-0.12,0.1-0.21,0.27-0.21,0.51c0,0.12-0.03,0.21-0.1,0.27c-0.05,0.05-0.12,0.07-0.18,0.09c-0.49-0.69-1.1-1.11-1.1-1.11
					l-0.47,0.51c0.36,0.33,0.72,0.73,1.08,1.24c0.25,0.35,0.5,0.81,0.71,1.26l0.64-0.3c0,0-0.29-0.72-0.7-1.37
					c0.07-0.03,0.14-0.06,0.21-0.12c0.13-0.11,0.19-0.27,0.18-0.47c0-0.13,0.04-0.22,0.09-0.28c0.07,0.05,0.16,0.09,0.26,0.09
					c0.23,0,0.42-0.19,0.42-0.42C257.71,471.97,257.53,471.79,257.29,471.79z"/>
				<path id="XMLID_371_" class="st27" d="M255.63,477.54c-0.88,0.43-2.33,1-4.24,1.26c-0.75,0.1-1.47,0.14-2.14,0.14
					c-0.87,0-1.64-0.06-2.23-0.14c-0.67-0.08-1.2-0.19-1.52-0.26c0.08,0.25,0.17,0.49,0.28,0.72c0,0.01,0,0.01,0.01,0.02
					c0.01,0.03,0.03,0.06,0.04,0.08c0.01,0.03,0.03,0.05,0.04,0.08c0,0.01,0.01,0.01,0.01,0.02c0.19,0.36,0.42,0.68,0.68,0.97
					c0.9,0.98,1.82,1.14,1.82,1.14l0.01,0l0.01,0c0.01,0,0.82,0.26,2.06,0.26c1.22,0,2.41-0.24,3.55-0.73
					c0.84-0.43,1.64-1.08,2.03-1.67c0.31-0.45,0.53-0.93,0.66-1.43c0.07-0.27,0.12-0.69,0.09-1.14
					C256.55,477.04,256.16,477.28,255.63,477.54z"/>
				<path id="XMLID_367_" class="st27" d="M252.32,471.66c-0.26-0.04-0.48-0.07-0.78-0.07c-0.28,0-0.63,0.02-1.09,0.07
					c-0.46,0.05-0.98,0.17-1.58,0.37c-0.84,0.28-1.6,0.72-2.2,1.28l-0.02,0.02c-0.09,0.08-0.27,0.25-0.49,0.53
					c-0.03,0.04-0.41,0.58-0.71,1.41c-0.23,0.62-0.22,1.53-0.22,1.54v0c0,0.21,0.01,0.42,0.04,0.63c0,0,0,0.01,0,0.01
					c0,0.03,0.01,0.05,0.01,0.08c0.02,0.14,0.04,0.29,0.07,0.44c0.44,0.11,3.05,0.72,5.97,0.31c1.83-0.25,3.22-0.79,4.06-1.2
					c0.7-0.34,1.15-0.65,1.33-0.77c-0.17-0.64-0.65-1.65-1.09-2.28C254.37,472.23,253.02,471.77,252.32,471.66z M248.68,476.91
					c-0.97,0-1.76-0.79-1.76-1.76c0-0.97,0.79-1.76,1.76-1.76c0.97,0,1.76,0.79,1.76,1.76
					C250.44,476.13,249.65,476.91,248.68,476.91z M253.83,475.62c-0.6,0-1.09-0.49-1.09-1.09c0-0.6,0.49-1.09,1.09-1.09
					s1.09,0.49,1.09,1.09C254.92,475.13,254.43,475.62,253.83,475.62z"/>
			</g>
		</g>
	</g>
</g>
</svg>
